<svg width="48" height="48" viewBox="0 0 48 48" fill="none" xmlns="http://www.w3.org/2000/svg">
<path d="M33 36H15C14.2044 36 13.4413 35.6839 12.8787 35.1213C12.3161 34.5587 12 33.7956 12 33V28.5H15V33H33V28.5H36V33C36 33.7956 35.6839 34.5587 35.1213 35.1213C34.5587 35.6839 33.7956 36 33 36ZM3 22.5H45V25.5H3V22.5ZM36 19.5H33V15H15V19.5H12V15C12 14.2044 12.3161 13.4413 12.8787 12.8787C13.4413 12.3161 14.2044 12 15 12H33C33.7956 12 34.5587 12.3161 35.1213 12.8787C35.6839 13.4413 36 14.2044 36 15V19.5ZM45 15H42V6H33V3H45V15ZM6 15H3V3H15V6H6V15ZM15 45H3V33H6V42H15V45ZM45 45H33V42H42V33H45V45Z" fill="white"/>
</svg>
