<svg width="30" height="30" viewBox="0 0 30 30" fill="none" xmlns="http://www.w3.org/2000/svg">
<path d="M1.90907 16.6364H11.7272C12.6272 16.6364 13.3636 15.9 13.3636 15V1.9091C13.3636 1.0091 12.6272 0.272736 11.7272 0.272736H1.90907C1.00907 0.272736 0.272705 1.0091 0.272705 1.9091V15C0.272705 15.9 1.00907 16.6364 1.90907 16.6364ZM1.90907 29.7273H11.7272C12.6272 29.7273 13.3636 28.9909 13.3636 28.0909V21.5455C13.3636 20.6455 12.6272 19.9091 11.7272 19.9091H1.90907C1.00907 19.9091 0.272705 20.6455 0.272705 21.5455V28.0909C0.272705 28.9909 1.00907 29.7273 1.90907 29.7273ZM18.2727 29.7273H28.0909C28.9909 29.7273 29.7272 28.9909 29.7272 28.0909V15C29.7272 14.1 28.9909 13.3636 28.0909 13.3636H18.2727C17.3727 13.3636 16.6363 14.1 16.6363 15V28.0909C16.6363 28.9909 17.3727 29.7273 18.2727 29.7273ZM16.6363 1.9091V8.45455C16.6363 9.35455 17.3727 10.0909 18.2727 10.0909H28.0909C28.9909 10.0909 29.7272 9.35455 29.7272 8.45455V1.9091C29.7272 1.0091 28.9909 0.272736 28.0909 0.272736H18.2727C17.3727 0.272736 16.6363 1.0091 16.6363 1.9091Z" fill="#00071F"/>
</svg>
