<svg width="32" height="32" viewBox="0 0 32 32" fill="none" xmlns="http://www.w3.org/2000/svg">
<path d="M11.2503 15.604C10.1578 15.604 9.27116 16.4907 9.27116 17.5832C9.27116 18.6757 10.1578 19.5623 11.2503 19.5623C12.3428 19.5623 13.2295 18.6757 13.2295 17.5832C13.2295 16.4907 12.3428 15.604 11.2503 15.604ZM20.7503 15.604C19.6578 15.604 18.7712 16.4907 18.7712 17.5832C18.7712 18.6757 19.6578 19.5623 20.7503 19.5623C21.8428 19.5623 22.7295 18.6757 22.7295 17.5832C22.7295 16.4907 21.8428 15.604 20.7503 15.604ZM16.0003 0.166504C7.26033 0.166504 0.166992 7.25984 0.166992 15.9998C0.166992 24.7398 7.26033 31.8332 16.0003 31.8332C24.7403 31.8332 31.8337 24.7398 31.8337 15.9998C31.8337 7.25984 24.7403 0.166504 16.0003 0.166504ZM16.0003 28.6665C9.01783 28.6665 3.33366 22.9823 3.33366 15.9998C3.33366 15.5407 3.36533 15.0815 3.41283 14.6382C7.14949 12.9757 10.1103 9.91984 11.662 6.13567C14.5278 10.189 19.2462 12.8332 24.582 12.8332C25.817 12.8332 27.0045 12.6907 28.1445 12.4215C28.477 13.5457 28.667 14.749 28.667 15.9998C28.667 22.9823 22.9828 28.6665 16.0003 28.6665Z" fill="#FED0B7"/>
</svg>
