<svg width="79" height="101" viewBox="0 0 79 101" fill="none" xmlns="http://www.w3.org/2000/svg">
<circle cx="39.5" cy="52.9952" r="39.5" fill="#081952"/>
<path d="M66.4722 59.0685C66.4722 43.3905 53.9299 24.8906 44.7321 19.7692C43.896 19.2466 43.2689 18.6195 42.7463 17.8878C41.7011 16.4246 39.6107 16.0065 38.1474 17.0517C37.8339 17.2607 37.6248 17.4697 37.4158 17.7833C36.6842 18.8285 35.7435 19.6647 34.5938 20.3963C24.978 26.0403 14.108 43.8086 14.108 59.0685C14.108 75.0599 28.3226 92.2011 36.6842 96.0683C36.6842 97.9497 38.1474 99.4129 40.0288 99.4129C41.9101 99.4129 43.3734 97.9497 43.3734 96.0683C43.3734 95.9638 43.3734 95.8593 43.2689 95.7548C51.6304 91.2604 66.4722 74.7464 66.4722 59.0685Z" fill="#F3F14F"/>
<path d="M40.0288 100.145C38.8791 100.145 37.9385 99.7266 37.1023 98.9949C36.4752 98.3678 36.0571 97.5317 35.9526 96.591C27.6956 92.4102 13.3764 75.4781 13.3764 59.0685C13.3764 43.5997 24.4555 25.5178 34.2803 19.6647C35.221 19.0376 36.0571 18.306 36.7887 17.3653C37.1023 17.0517 37.4159 16.7382 37.7294 16.5292C38.6701 15.902 39.7153 15.693 40.865 15.7975C41.9102 16.0066 42.8509 16.6337 43.5825 17.4698C44.0006 18.2015 44.6277 18.7241 45.2548 19.1421C55.2887 24.6817 67.4129 43.7042 67.4129 59.0685C67.4129 75.06 52.5712 91.4695 44.2096 96.1729C44.1051 98.3678 42.2237 100.145 40.0288 100.145ZM40.0288 17.2608C39.5062 17.2608 38.9836 17.4698 38.5656 17.7834C38.3565 17.9924 38.1475 18.0969 38.043 18.306C37.2068 19.3512 36.2661 20.2918 35.0119 21.0235C25.5007 26.6675 14.9442 44.1223 14.9442 59.0685C14.9442 75.1645 29.2633 91.6786 37.1023 95.3368L37.6249 95.5458V96.0684C37.6249 96.8 37.9385 97.4271 38.3565 97.8452C38.8791 98.3678 39.5062 98.5769 40.1334 98.5769C41.4921 98.5769 42.6418 97.4272 42.6418 95.9639C42.6418 95.8594 42.6418 95.8594 42.6418 95.7548L42.5373 95.1277L43.0599 94.8142C51.0034 90.6334 65.8451 74.5374 65.8451 58.8595C65.8451 43.2861 53.0938 24.9952 44.5232 20.2918C43.5825 19.7693 42.8509 19.0376 42.3283 18.2015C41.9102 17.6789 41.3876 17.2608 40.656 17.1563C40.3424 17.2608 40.1334 17.2608 40.0288 17.2608Z" fill="#00081E"/>
<path d="M30.3084 63.4584C35.9077 63.4584 40.4468 58.3109 40.4468 51.9612C40.4468 45.6116 35.9077 40.4641 30.3084 40.4641C24.7092 40.4641 20.17 45.6116 20.17 51.9612C20.17 58.3109 24.7092 63.4584 30.3084 63.4584Z" fill="#F2EAE0"/>
<path d="M30.3084 64.2943C24.2463 64.2943 19.4384 58.7547 19.4384 51.961C19.4384 45.1672 24.3508 39.6277 30.3084 39.6277C36.3706 39.6277 41.283 45.1672 41.283 51.961C41.283 58.7547 36.3706 64.2943 30.3084 64.2943ZM30.3084 41.3C25.187 41.3 21.0062 46.1079 21.0062 51.961C21.0062 57.8141 25.187 62.6219 30.3084 62.6219C35.4299 62.6219 39.6107 57.8141 39.6107 51.961C39.6107 46.1079 35.5344 41.3 30.3084 41.3Z" fill="#00081E"/>
<path d="M50.1671 63.4584C55.7663 63.4584 60.3054 58.3109 60.3054 51.9612C60.3054 45.6116 55.7663 40.4641 50.1671 40.4641C44.5678 40.4641 40.0287 45.6116 40.0287 51.9612C40.0287 58.3109 44.5678 63.4584 50.1671 63.4584Z" fill="#F2EAE0"/>
<path d="M50.1671 64.2943C44.105 64.2943 39.2971 58.7547 39.2971 51.961C39.2971 45.1672 44.2095 39.6277 50.1671 39.6277C56.2293 39.6277 61.1417 45.1672 61.1417 51.961C61.1417 58.7547 56.1247 64.2943 50.1671 64.2943ZM50.1671 41.3C45.0457 41.3 40.8649 46.1079 40.8649 51.961C40.8649 57.8141 45.0457 62.6219 50.1671 62.6219C55.2886 62.6219 59.4694 57.8141 59.4694 51.961C59.4694 46.1079 55.2886 41.3 50.1671 41.3Z" fill="#00081E"/>
<path d="M38.3564 74.2238C35.0118 74.2238 31.7717 73.9103 28.4271 73.1787C29.8903 78.9272 34.3847 83.2125 39.8197 83.2125C45.4637 83.2125 50.1671 78.6137 51.4213 72.447C47.136 73.7013 42.7462 74.2238 38.3564 74.2238Z" fill="#EEEEE7"/>
<path d="M39.8195 84.0485C34.1755 84.0485 29.2631 79.7632 27.6953 73.492L27.3817 72.2378L28.6359 72.5513C31.876 73.1785 35.1161 73.492 38.2517 73.492C42.6415 73.5965 46.9268 72.8649 51.1076 71.7152L52.3618 71.2971L52.0483 72.5513C50.8986 79.3451 45.7771 84.0485 39.8195 84.0485ZM29.5766 74.2237C31.2489 79.0315 35.3252 82.3762 39.8195 82.3762C44.6274 82.3762 48.8082 78.8225 50.2715 73.492C46.4042 74.5372 42.328 75.0598 38.2517 74.9553C35.3252 75.0598 32.5032 74.8508 29.5766 74.2237Z" fill="#00081E"/>
<path d="M35.2202 82.7945C37.356 82.7945 39.0874 81.999 39.0874 81.0177C39.0874 80.0364 37.356 79.2408 35.2202 79.2408C33.0844 79.2408 31.353 80.0364 31.353 81.0177C31.353 81.999 33.0844 82.7945 35.2202 82.7945Z" fill="#E54B4D"/>
<path d="M35.2201 83.6305C32.9207 83.6305 30.5167 82.7944 30.5167 81.0175C30.5167 79.3452 32.8161 78.4045 35.2201 78.4045C37.624 78.4045 39.9235 79.2407 39.9235 81.0175C39.9235 82.7944 37.5195 83.6305 35.2201 83.6305ZM35.2201 80.1814C33.2342 80.1814 32.0845 80.913 32.0845 81.122C32.0845 81.4356 33.2342 82.0627 35.2201 82.0627C37.206 82.0627 38.3557 81.3311 38.3557 81.122C38.3557 80.8085 37.206 80.1814 35.2201 80.1814Z" fill="#00081E"/>
<path d="M40.5508 83.8395C42.6866 83.8395 44.418 83.044 44.418 82.0627C44.418 81.0814 42.6866 80.2859 40.5508 80.2859C38.4149 80.2859 36.6835 81.0814 36.6835 82.0627C36.6835 83.044 38.4149 83.8395 40.5508 83.8395Z" fill="#E54B4D"/>
<path d="M40.5507 84.5712C38.2512 84.5712 35.8473 83.735 35.8473 81.9582C35.8473 80.1814 38.1467 79.3452 40.5507 79.3452C42.9546 79.3452 45.254 80.1814 45.254 81.9582C45.254 83.735 42.8501 84.5712 40.5507 84.5712ZM40.5507 81.0175C38.5648 81.0175 37.4151 81.7492 37.4151 81.9582C37.4151 82.2718 38.5648 82.8989 40.5507 82.8989C42.5365 82.8989 43.6862 82.1672 43.6862 81.9582C43.5817 81.7492 42.432 81.0175 40.5507 81.0175Z" fill="#00081E"/>
<path d="M39.8196 83.2122C34.6982 83.2122 30.0993 79.2405 28.6361 73.701L28.5316 73.2829L28.9496 73.3874C32.0852 74.0145 35.2208 74.3281 38.3564 74.3281C42.5372 74.4326 46.8224 73.8055 50.8987 72.6558L51.3168 72.5513L51.2123 72.9693C49.958 78.927 45.3592 83.2122 39.8196 83.2122ZM29.3677 73.8055C30.831 79.0315 35.1163 82.5851 39.9242 82.5851C45.0456 82.5851 49.3309 78.7179 50.6897 73.0739C46.7179 74.1191 42.6417 74.6417 38.5654 74.6417C35.3253 74.7462 32.2943 74.4326 29.3677 73.8055Z" fill="#00081E"/>
<path d="M37.1022 39.1051C36.8932 39.1051 36.7886 39.0006 36.5796 38.896C33.1305 36.4921 28.6361 36.1785 24.978 38.2689C24.5599 38.478 24.1418 38.3734 23.9328 37.9554C23.7237 37.5373 23.8282 37.1192 24.2463 36.9102C28.4271 34.6107 33.6531 34.8198 37.5203 37.6418C37.9384 37.9554 37.9384 38.3734 37.7293 38.7915C37.5203 39.0006 37.3112 39.1051 37.1022 39.1051Z" fill="#00081E"/>
<path d="M56.5428 39.1051C56.3338 39.1051 56.2293 39.0006 56.0202 38.896C52.5711 36.4921 48.0768 36.1785 44.4186 38.2689C44.0005 38.478 43.5824 38.3734 43.3734 37.9554C43.1643 37.5373 43.2689 37.1192 43.6869 36.9102C47.8677 34.6107 53.0937 34.8198 56.9609 37.6418C57.379 37.9554 57.379 38.3734 57.1699 38.7915C57.0654 39.0006 56.8564 39.1051 56.5428 39.1051Z" fill="#00081E"/>
<path d="M55.602 69.6246C46.1953 76.0003 33.9665 76.4184 24.0372 70.7744L55.602 69.6246Z" fill="#F3F14F"/>
<path d="M40.0287 75.4779C34.3846 75.687 28.7406 74.3282 23.6191 71.4017L24.4553 70.0429C33.9666 75.5824 46.0908 75.1644 55.184 68.8932L56.1247 70.2519C51.3168 73.492 45.6727 75.2689 40.0287 75.4779Z" fill="#00081E"/>
<path d="M57.9015 71.4016C55.6021 71.5061 53.5117 69.7292 53.4072 67.3253C53.3027 66.9072 53.7207 66.4891 54.1388 66.4891C54.5569 66.3846 54.975 66.8027 54.975 67.2208C55.0795 68.7886 56.4382 69.9383 57.9015 69.8338C58.3196 69.7292 58.7377 70.1473 58.7377 70.5654C58.8422 70.9835 58.4241 71.4016 58.006 71.4016H57.9015Z" fill="#00081E"/>
<path d="M21.7378 72.6557C21.6332 72.6557 21.6332 72.6557 21.5287 72.6557C21.1106 72.6557 20.6926 72.2376 20.6926 71.8195C20.6926 71.4015 21.1106 70.9834 21.5287 70.9834C23.0965 70.8789 24.3507 69.7291 24.3507 68.1614C24.3507 67.7433 24.7688 67.3252 25.1869 67.3252C25.605 67.3252 26.0231 67.7433 26.0231 68.1614C26.0231 70.6698 24.1417 72.6557 21.7378 72.6557Z" fill="#00081E"/>
<path d="M59.3649 1.89625C59.4694 2.00077 59.5739 12.0346 55.3931 17.2606C51.2123 22.4866 45.6728 24.995 42.9553 22.8001L42.8508 22.6956L42.7463 22.5911C40.0288 20.5007 41.1785 14.4386 45.3593 9.21261C49.54 3.98664 59.3649 1.79174 59.3649 1.89625Z" fill="#609C3F"/>
<path d="M45.4638 24.2634C44.3141 24.2634 43.3734 23.9498 42.5372 23.3227L42.3282 23.1137C41.3875 22.382 40.7604 21.2323 40.5514 19.6645C40.1333 16.529 41.8056 12.2437 44.7321 8.58548C49.122 3.04595 59.1558 0.955566 59.2603 0.955566L59.5739 0.955566L59.7829 1.16461L60.0965 1.37364L60.201 1.79172C60.201 1.89624 60.5146 12.1391 56.1248 17.6787C52.7801 21.8594 48.5994 24.2634 45.4638 24.2634ZM58.6332 2.83692C56.1248 3.46403 49.2265 5.55442 45.9864 9.63067C43.2689 12.9753 41.8056 16.8425 42.1192 19.56C42.2237 20.6052 42.6418 21.3368 43.2689 21.8594L43.5824 22.0685C45.8819 23.8453 51.1078 21.4414 54.8705 16.6335C57.9016 12.7663 58.5287 5.55442 58.6332 2.83692Z" fill="#00081E"/>
<path d="M58.6456 1.49437L42.2496 22.1072L43.4766 23.0831L59.8725 2.47032L58.6456 1.49437Z" fill="#00081E"/>
<path d="M51.7773 4.66984L50.2142 4.79102L50.7474 11.6686L52.3105 11.5474L51.7773 4.66984Z" fill="#00081E"/>
<path d="M46.1994 8.83237L44.6708 9.18042L46.5039 17.231L48.0325 16.883L46.1994 8.83237Z" fill="#00081E"/>
<path d="M49.8594 13.3574L49.5156 14.8871L56.1443 16.377L56.4881 14.8473L49.8594 13.3574Z" fill="#00081E"/>
<path d="M55.0163 6.79537L54.7708 8.34387L58.6936 8.96585L58.9392 7.41734L55.0163 6.79537Z" fill="#00081E"/>
<path d="M45.1887 19.2867L44.7863 20.802L50.5443 22.3313L50.9467 20.816L45.1887 19.2867Z" fill="#00081E"/>
<path d="M42.7304 14.8791L41.2228 15.3094L43.059 21.7418L44.5666 21.3115L42.7304 14.8791Z" fill="#00081E"/>
<path d="M26.5458 80.5993C26.5458 80.5993 30.413 78.8225 30.8311 79.2406C31.3537 79.7632 35.9525 82.8988 35.9525 82.8988L41.492 83.1078L47.4496 80.7038L48.3903 85.3027L41.3875 91.4693L39.2971 91.5739L30.0994 84.9891L26.5458 80.5993Z" fill="#F3F14F"/>
<path d="M39.8195 84.0485C34.1755 84.0485 29.2631 79.7632 27.6953 73.492L27.3817 72.2378L28.6359 72.5513C31.876 73.1785 35.1161 73.492 38.2517 73.492C42.6415 73.5965 46.9268 72.8649 51.1076 71.7152L52.3618 71.2971L52.0483 72.5513C50.8986 79.3451 45.7771 84.0485 39.8195 84.0485ZM29.5766 74.2237C31.2489 79.0315 35.3252 82.3762 39.8195 82.3762C44.6274 82.3762 48.8082 78.8225 50.2715 73.492C46.4042 74.5372 42.328 75.0598 38.2517 74.9553C35.3252 75.0598 32.5032 74.8508 29.5766 74.2237Z" fill="#00081E"/>
<path d="M50.1671 45.5851C47.136 45.5851 44.732 47.8845 44.314 50.8111H47.5541L44.523 53.1105C45.2546 55.5144 47.4495 57.3958 50.1671 57.3958C53.4072 57.3958 56.0201 54.7828 56.0201 51.5427C56.0201 48.3026 53.4072 45.5851 50.1671 45.5851Z" fill="#00081E"/>
<path d="M29.8901 45.5851C26.8591 45.5851 24.4551 47.8845 24.037 50.8111H27.2771L24.2461 53.1105C24.9777 55.5144 27.1726 57.3958 29.8901 57.3958C33.1302 57.3958 35.7432 54.7828 35.7432 51.5427C35.7432 48.3026 33.1302 45.5851 29.8901 45.5851Z" fill="#00081E"/>
<path d="M42.0143 45.6896L42.6414 44.8534C44.4182 42.345 47.1357 40.8817 50.1668 40.8817C53.1979 40.8817 55.9154 42.345 57.6922 44.8534L58.3193 45.6896H42.0143Z" fill="#F4F43B"/>
<path d="M50.0623 41.4043C52.9888 41.4043 55.4973 42.8676 57.1696 45.167H42.955C44.6273 42.8676 47.1358 41.4043 50.0623 41.4043ZM50.0623 40.3591C46.9267 40.3591 44.0002 41.9269 42.1188 44.5399L40.9691 46.2122H42.955H57.0651H59.051L57.9013 44.5399C56.1244 41.9269 53.1979 40.3591 50.0623 40.3591Z" fill="#00071F"/>
<path d="M22.2603 45.6896L22.7829 44.8534C24.5597 42.345 27.2772 40.8817 30.3083 40.8817C33.3394 40.8817 36.0569 42.345 37.8337 44.8534L38.4608 45.6896H22.2603Z" fill="#F4F43B"/>
<path d="M30.3083 41.4043C33.2349 41.4043 35.7433 42.8676 37.4157 45.167H23.201C24.8733 42.8676 27.3818 41.4043 30.3083 41.4043ZM30.3083 40.3591C27.1728 40.3591 24.2462 41.9269 22.3649 44.5399L21.2151 46.2122H23.201H37.4157H39.4015L38.2518 44.5399C36.3705 41.9269 33.4439 40.3591 30.3083 40.3591Z" fill="#00071F"/>
<path d="M20.2756 10.2067L16.9212 6.1814L15.311 11.2801L11.2857 14.7687L16.3844 16.2447L19.8731 20.27L21.349 15.1713L25.3743 11.8169L20.2756 10.2067Z" fill="#75D1FF"/>
</svg>
