<svg width="35" height="70" viewBox="0 0 35 70" fill="none" xmlns="http://www.w3.org/2000/svg">
<path fill-rule="evenodd" clip-rule="evenodd" d="M-7.47012e-05 50.833C1.76129 50.833 3.52384 50.5392 5.21289 49.9502C8.76206 48.7126 11.7552 46.2528 13.6569 43.0106C15.5586 39.7685 16.2449 35.9555 15.5929 32.2537C14.9409 28.5519 12.9933 25.2029 10.0983 22.8055C7.25689 20.4525 3.6848 19.167 -7.33171e-05 19.167L-7.24792e-05 -1.52798e-06C8.14561 -8.64591e-05 16.042 2.84163 22.3232 8.04314C28.7227 13.3427 33.0282 20.7461 34.4694 28.9291C35.9106 37.1121 34.3936 45.541 30.1897 52.7081C25.9858 59.8751 19.3693 65.3128 11.5236 68.0485C7.78981 69.3505 3.89356 70 -7.5539e-05 70L-7.47012e-05 50.833Z" fill="#AFE9AD"/>
<g clip-path="url(#clip0_999_3)">
<path d="M-2 43.13L-0.23 44.9L9.67 35L-0.23 25.1L-2 26.87L6.13 35L-2 43.13Z" fill="#AFE9AD"/>
</g>
<defs>
<clipPath id="clip0_999_3">
<rect width="24" height="24" fill="white" transform="translate(4 23)"/>
</clipPath>
</defs>
</svg>
