<svg width="42" height="27" viewBox="0 0 42 27" fill="none" xmlns="http://www.w3.org/2000/svg">
<path fill-rule="evenodd" clip-rule="evenodd" d="M19.2397 19.6958L14.4311 26.1242C13.768 27.0277 12.4042 26.9354 11.8523 25.9795L8.2553 19.7804C7.86663 19.1072 8.03054 18.2407 8.64932 17.7577L19.7621 9.20631C18.87 10.955 18.3669 12.9353 18.3669 15.0331C18.3669 16.6779 18.6762 18.2505 19.2397 19.6958ZM32.266 2.23663C32.7951 1.16878 31.9421 -0.135279 30.6808 0.0113422L1.37188 3.5049C0.257838 3.62749 -0.344129 4.85467 0.20778 5.81061L3.77784 12.0252C4.16651 12.6984 4.99893 12.9897 5.71876 12.6819L22.1778 5.90417C24.4972 3.61006 27.6864 2.19354 31.2065 2.19354C31.5632 2.19354 31.9166 2.20809 32.266 2.23663Z" fill="#6DE7B4"/>
<path d="M41.195 14.7812C41.195 9.41119 36.8368 5.04608 31.4752 5.04608C29.155 5.04608 27.0542 5.86258 25.3924 7.21293C21.4731 10.0079 20.1249 15.1581 22.1629 19.3975C23.8561 22.9462 27.3991 25.0188 31.0989 25.0188C32.5412 25.0188 33.9835 24.7048 35.3631 24.0453C36.1156 23.6998 36.7114 23.166 37.2757 22.6321L37.5266 22.4123L37.4952 22.3809C39.7527 20.6223 41.195 17.8902 41.195 14.7812ZM31.4752 23.9197C26.4585 23.9197 22.3824 19.8372 22.3824 14.8126C22.3824 9.78803 26.4585 5.70556 31.4752 5.70556C36.4919 5.70556 40.5679 9.78803 40.5679 14.8126C40.5679 19.8058 36.4919 23.9197 31.4752 23.9197Z" fill="#6DE7B4"/>
<path d="M37.6404 15.4883H32.697L31.8641 15.9978C31.273 17.7945 30.6014 19.0548 30.3058 18.9744C29.9566 18.8671 30.1984 16.9632 30.87 14.7106C31.5417 12.458 32.3746 10.715 32.7238 10.8223C33.0194 10.9027 32.885 12.2972 32.4283 14.067L33.288 14.7106H37.5061L38.339 14.1475C37.9091 10.6345 34.8732 7.89929 31.2462 7.89929C27.2968 7.89929 24.0728 11.0904 24.0728 15.0324C24.0728 18.9744 27.2968 22.1655 31.2462 22.1655C34.8732 22.1655 37.8822 19.4571 38.339 15.9442L37.6404 15.4883Z" fill="#6DE7B4"/>
</svg>
