<svg width="58" height="40" viewBox="0 0 58 40" fill="none" xmlns="http://www.w3.org/2000/svg">
<g filter="url(#filter0_d_1976_58258)">
<circle cx="20" cy="16" r="16" fill="white"/>
<path d="M20.2288 27.4834C26.1171 27.4834 30.8905 22.71 30.8905 16.8217C30.8905 10.9334 26.1171 6.16003 20.2288 6.16003C14.3405 6.16003 9.56714 10.9334 9.56714 16.8217C9.56714 22.71 14.3405 27.4834 20.2288 27.4834Z" fill="#F86C44"/>
<path d="M20.2293 27.7919C14.1722 27.7919 9.25854 22.8783 9.25854 16.8212C9.25854 10.7641 14.1722 5.85046 20.2293 5.85046C26.2863 5.85046 31.2 10.7641 31.2 16.8212C31.2 22.8783 26.2863 27.7919 20.2293 27.7919ZM20.2293 6.43763C14.5121 6.43763 9.87661 11.0731 9.87661 16.7903C9.87661 22.5074 14.5121 27.1429 20.2293 27.1429C25.9464 27.1429 30.5819 22.5074 30.5819 16.7903C30.5819 11.0731 25.9464 6.43763 20.2293 6.43763Z" fill="#080808"/>
<path d="M17.2317 19.85C18.9043 19.85 20.2602 17.9545 20.2602 15.6162C20.2602 13.278 18.9043 11.3824 17.2317 11.3824C15.559 11.3824 14.2031 13.278 14.2031 15.6162C14.2031 17.9545 15.559 19.85 17.2317 19.85Z" fill="#F2EAE0"/>
<path d="M17.2319 20.1598C15.4086 20.1598 13.8943 18.1202 13.8943 15.617C13.8943 13.1138 15.3777 11.0742 17.2319 11.0742C19.0861 11.0742 20.5694 13.1138 20.5694 15.617C20.5694 18.1202 19.0861 20.1598 17.2319 20.1598ZM17.2319 11.6923C15.7485 11.6923 14.5124 13.4538 14.5124 15.617C14.5124 17.7803 15.7176 19.5418 17.2319 19.5418C18.7461 19.5418 19.9514 17.7803 19.9514 15.617C19.9514 13.4538 18.7461 11.6923 17.2319 11.6923Z" fill="#080808"/>
<path d="M23.165 19.85C24.8376 19.85 26.1935 17.9545 26.1935 15.6162C26.1935 13.278 24.8376 11.3824 23.165 11.3824C21.4924 11.3824 20.1365 13.278 20.1365 15.6162C20.1365 17.9545 21.4924 19.85 23.165 19.85Z" fill="#F2EAE0"/>
<path d="M23.165 20.1598C21.3417 20.1598 19.8274 18.1202 19.8274 15.617C19.8274 13.1138 21.3108 11.0742 23.165 11.0742C25.0192 11.0742 26.5025 13.1138 26.5025 15.617C26.5025 18.1202 25.0192 20.1598 23.165 20.1598ZM23.165 11.6923C21.6816 11.6923 20.4455 13.4538 20.4455 15.617C20.4455 17.7803 21.6507 19.5418 23.165 19.5418C24.6792 19.5418 25.8845 17.7803 25.8845 15.617C25.8845 13.4538 24.6792 11.6923 23.165 11.6923Z" fill="#080808"/>
<path d="M20.1672 16.5742H21.3107C22.1451 16.5742 22.8249 17.2541 22.8249 18.0885C22.8249 18.9229 22.1451 19.6028 21.3107 19.6028H20.1672" fill="#F86C44"/>
<path d="M21.3107 19.9119H20.1672V19.2938H21.3107C21.9596 19.2938 22.5159 18.7684 22.5159 18.0886C22.5159 17.4396 21.9905 16.8833 21.3107 16.8833H20.1672V16.2653H21.3107C22.2996 16.2653 23.134 17.0687 23.134 18.0886C23.134 19.1084 22.3305 19.9119 21.3107 19.9119Z" fill="#080808"/>
<path d="M18.4056 14.5343C17.4476 14.5343 16.675 15.3069 16.675 16.2649C16.675 16.5121 16.7369 16.7593 16.8296 16.9757L17.9112 17.0375L17.5712 17.7792C18.4056 18.2427 19.4564 17.9028 19.889 17.0684C20.3217 16.234 20.0126 15.1833 19.1782 14.7506C18.9619 14.627 18.6838 14.5343 18.4056 14.5343Z" fill="#021023"/>
<path d="M24.4943 14.5352C23.5363 14.5352 22.7637 15.3077 22.7637 16.2657C22.7637 16.513 22.8255 16.7602 22.9182 16.9765L24.1234 17.0074L23.6599 17.78C24.4943 18.2436 25.545 17.9036 25.9776 17.0692C26.4412 16.2348 26.1012 15.1841 25.2668 14.7515C25.0505 14.6279 24.7724 14.5352 24.4943 14.5352Z" fill="#021023"/>
<path d="M26.1937 15.7398C26.1937 15.7089 26.1937 15.678 26.1937 15.6162C26.1937 13.2676 24.8339 11.3824 23.1651 11.3824C21.7127 11.3824 20.4765 12.8349 20.1984 14.7818C19.9203 12.8658 18.6841 11.3824 17.2317 11.3824C15.5629 11.3824 14.2031 13.2676 14.2031 15.6162V15.7398H26.1937Z" fill="#F86C44"/>
<path d="M20.1984 16.9459L20.0748 16.0497H13.925V15.617C13.925 13.1138 15.4084 11.0742 17.2626 11.0742C18.5297 11.0742 19.6731 12.0631 20.2293 13.5465C20.7856 12.0631 21.929 11.0742 23.1961 11.0742C25.0194 11.0742 26.5336 13.1138 26.5336 15.617V16.0497H20.3839L20.1984 16.9459ZM20.4148 15.4316H25.8538C25.792 13.3611 24.5867 11.6923 23.1343 11.6923C21.8672 11.6923 20.7547 13.0211 20.4766 14.8135L20.4148 15.4316ZM14.5431 15.4316H19.9821L19.8894 14.8444C19.6422 13.0211 18.4988 11.7232 17.2317 11.7232C15.8102 11.6923 14.6049 13.3611 14.5431 15.4316Z" fill="#080808"/>
<path d="M13.2761 2.04963C13.2761 2.04963 13.8633 5.44901 15.6248 6.90147C17.3863 8.35393 19.395 8.84838 20.1367 7.95218L20.1676 7.92128L20.1985 7.89038C20.9711 6.99418 20.1676 5.04726 18.437 3.5948C16.7064 2.14234 13.2761 2.01873 13.2761 2.04963Z" fill="#609C3F"/>
<path d="M18.962 8.72475C17.9421 8.72475 16.6133 8.16849 15.4081 7.14868C13.6157 5.63441 12.9976 2.23504 12.9667 2.11142L12.9358 1.98781L13.0903 1.77148H13.2139C13.2448 1.77148 16.7678 1.77148 18.622 3.37846C20.5071 4.98544 21.3106 7.08687 20.4144 8.10669L20.3835 8.13759C20.3526 8.16849 20.3526 8.16849 20.3217 8.1994C20.0436 8.53933 19.5491 8.72475 18.962 8.72475ZM13.6466 2.35865C13.8629 3.25485 14.5119 5.57261 15.8098 6.65423C17.3859 7.98307 19.271 8.47753 19.8891 7.73584L19.9818 7.64313C20.5998 6.90145 19.8273 5.13996 18.2512 3.78021C16.9841 2.72949 14.6046 2.42046 13.6466 2.35865Z" fill="#080808"/>
<path d="M13.508 1.85014L13.1074 2.3208L19.9555 8.14909L20.3561 7.67843L13.508 1.85014Z" fill="#080808"/>
<path d="M16.5675 2.42311L15.9536 2.49512L16.2272 4.82781L16.8411 4.7558L16.5675 2.42311Z" fill="#080808"/>
<path d="M18.094 3.47981L18.011 6.29089L18.6288 6.30914L18.7118 3.49806L18.094 3.47981Z" fill="#080808"/>
<path d="M17.1632 5.22357L15.0422 6.15833L15.2915 6.72392L17.4125 5.78917L17.1632 5.22357Z" fill="#080808"/>
<path d="M15.0442 3.37858L13.7678 3.84717L13.9808 4.42735L15.2572 3.95877L15.0442 3.37858Z" fill="#080808"/>
<path d="M19.1584 6.8902L17.3242 7.78235L17.5946 8.33818L19.4288 7.44603L19.1584 6.8902Z" fill="#080808"/>
<path d="M19.6476 5.30273L19.4602 7.55078L20.0761 7.60211L20.2635 5.35406L19.6476 5.30273Z" fill="#080808"/>
<path d="M29.408 6.22163C29.408 6.25254 27.0594 8.75571 24.8034 9.03384C22.5475 9.31198 20.6005 8.6012 20.446 7.42687C20.446 7.39596 20.446 7.39596 20.446 7.36506V7.30325C20.2915 6.12892 21.9912 4.95459 24.2472 4.64556C26.5031 4.33652 29.408 6.22163 29.408 6.22163Z" fill="#609C3F"/>
<path d="M23.814 9.40481C23.0414 9.40481 22.3306 9.2812 21.7435 9.06487C20.8164 8.72493 20.2292 8.16867 20.1365 7.45789C20.1365 7.42699 20.1365 7.36518 20.1365 7.33428C20.0747 6.90163 20.2292 6.46898 20.5382 6.06724C21.1872 5.20194 22.6088 4.55297 24.2157 4.33665C26.3481 4.05852 29.6238 5.6964 29.7165 6.12905V6.19085C29.7165 6.53079 27.0588 9.03397 24.8338 9.3121C24.4939 9.40481 24.1539 9.40481 23.814 9.40481ZM24.772 4.95472C24.6175 4.95472 24.4321 4.95472 24.2775 4.98562C22.856 5.17104 21.558 5.75821 21.0018 6.46898C20.7854 6.74711 20.6927 7.02525 20.7236 7.27247V7.36518C20.7854 7.82873 21.2181 8.23048 21.9289 8.47771C22.7015 8.75584 23.7213 8.84855 24.772 8.69403C26.4717 8.47771 28.2641 6.87073 28.913 6.25266C28.2023 5.88182 26.4099 4.95472 24.772 4.95472Z" fill="#080808"/>
<path d="M29.3003 5.92444L20.3821 7.08362L20.4617 7.69656L29.38 6.53738L29.3003 5.92444Z" fill="#080808"/>
<path d="M26.4265 4.74101L24.929 6.55042L25.4051 6.9445L26.9026 5.13509L26.4265 4.74101Z" fill="#080808"/>
<path d="M24.0598 4.52189L22.5989 6.92493L23.127 7.24601L24.588 4.84298L24.0598 4.52189Z" fill="#080808"/>
<path d="M24.396 6.76586L23.8789 7.10437L25.1484 9.04363L25.6655 8.70512L24.396 6.76586Z" fill="#080808"/>
<path d="M21.8631 7.1013L21.3337 7.42029L22.3704 9.14077L22.8998 8.82178L21.8631 7.1013Z" fill="#080808"/>
<path d="M21.7337 5.18313L20.6543 7.19922L21.1992 7.49095L22.2786 5.47486L21.7337 5.18313Z" fill="#080808"/>
<path d="M19.889 21.7974C18.7765 21.7974 17.6949 21.6738 16.6133 21.4575C17.1077 23.3735 18.622 24.7641 20.4144 24.7641C22.2995 24.7641 23.8756 23.2189 24.2773 21.1793C22.8249 21.612 21.3415 21.8283 19.889 21.7974Z" fill="#EEEEE7"/>
<path d="M20.3835 25.1038C18.4984 25.1038 16.8296 23.6514 16.3043 21.5499L16.1807 21.0555L16.6751 21.1482C17.7258 21.3645 18.8075 21.4881 19.8891 21.4881C21.3415 21.4881 22.7631 21.3027 24.1537 20.901L24.6482 20.7465L24.5555 21.2409C24.0919 23.4969 22.3614 25.1038 20.3835 25.1038ZM17.046 21.8899C17.6331 23.4351 18.9311 24.4858 20.3835 24.4858C21.8978 24.4858 23.2885 23.3114 23.8138 21.6427C22.5159 21.9826 21.2179 22.1371 19.8891 22.1371C18.9311 22.1371 17.9731 22.0444 17.046 21.8899Z" fill="#080808"/>
<path d="M25.5133 20.4678C22.2993 22.4765 18.2201 22.4765 15.0061 20.4678H25.5133Z" fill="#F86C44"/>
<path d="M20.2597 22.2605C18.3746 22.2605 16.4895 21.7351 14.8516 20.7153C14.6971 20.6226 14.6662 20.4372 14.7589 20.2827C14.8516 20.1282 15.0371 20.0973 15.1916 20.19C18.2819 22.1369 22.2685 22.1369 25.3588 20.19C25.5133 20.0973 25.6987 20.1282 25.7915 20.2827C25.8842 20.4372 25.8533 20.6226 25.6987 20.7153C24.03 21.766 22.1449 22.2605 20.2597 22.2605Z" fill="#080808"/>
<path d="M18.8392 24.6705C19.556 24.6705 20.1371 24.4077 20.1371 24.0834C20.1371 23.7591 19.556 23.4962 18.8392 23.4962C18.1224 23.4962 17.5413 23.7591 17.5413 24.0834C17.5413 24.4077 18.1224 24.6705 18.8392 24.6705Z" fill="#E54B4D"/>
<path d="M18.8394 24.9792C18.0359 24.9792 17.2324 24.6702 17.2324 24.083C17.2324 22.9087 20.4464 22.9087 20.4464 24.083C20.4464 24.6702 19.6429 24.9792 18.8394 24.9792ZM18.8394 23.8049C18.2213 23.8049 17.8814 24.0212 17.8505 24.083C17.8814 24.1448 18.2213 24.3302 18.8394 24.3302C19.4575 24.3302 19.7974 24.1139 19.8283 24.0521C19.7974 24.0212 19.4575 23.8049 18.8394 23.8049Z" fill="#080808"/>
<path d="M20.6007 24.9801C21.3175 24.9801 21.8986 24.7172 21.8986 24.3929C21.8986 24.0687 21.3175 23.8058 20.6007 23.8058C19.8838 23.8058 19.3027 24.0687 19.3027 24.3929C19.3027 24.7172 19.8838 24.9801 20.6007 24.9801Z" fill="#E54B4D"/>
<path d="M20.6011 25.2893C19.7976 25.2893 18.9941 24.9802 18.9941 24.3931C18.9941 23.2187 22.2081 23.2187 22.2081 24.3931C22.2081 24.9802 21.4046 25.2893 20.6011 25.2893ZM20.6011 24.1149C19.9831 24.1149 19.6431 24.3313 19.6122 24.3931C19.6431 24.4549 19.9831 24.6403 20.6011 24.6403C21.2192 24.6403 21.5591 24.424 21.59 24.3622C21.5591 24.3004 21.2192 24.1149 20.6011 24.1149Z" fill="#080808"/>
<path d="M22.6712 23.9904L21.6205 24.5775L19.0246 24.2067L18.3447 24.2685L18.7156 25.4737C18.7156 25.4737 19.1173 26.7099 20.8788 25.9682C22.6403 25.2265 22.6403 25.2265 22.6403 25.2265L22.6712 23.9904Z" fill="#080808"/>
<path d="M20.384 24.8565C18.6534 24.8565 17.0774 23.5277 16.6138 21.6116L16.552 21.3644L16.7992 21.4262C17.819 21.6425 18.8698 21.7353 19.9205 21.7353C19.9514 21.7353 19.9823 21.7353 20.0132 21.7353C21.3729 21.7353 22.7327 21.5498 24.0615 21.179L24.3088 21.1172L24.247 21.3644C23.8143 23.404 22.2382 24.8565 20.384 24.8565ZM16.9846 21.7662C17.51 23.404 18.8698 24.5475 20.384 24.5475C22.0219 24.5475 23.4126 23.3113 23.8761 21.5498C22.5782 21.8898 21.2493 22.0752 19.9205 22.0443C18.9316 22.0443 17.9427 21.9516 16.9846 21.7662Z" fill="#080808"/>
<path d="M15.6553 23.0641L17.3859 23.1259L18.4366 24.2693L19.4873 24.6711L21.1561 24.7329L22.7013 23.9603L23.5047 23.3731L25.6062 24.7947C25.6062 24.7947 26.8114 25.7527 22.4849 25.969C18.1585 26.1853 18.2821 26.2162 18.2821 26.2162L15.8098 25.3509L15.6553 23.0641Z" fill="#F86C44"/>
<path d="M20.3838 25.1038C18.4987 25.1038 16.8299 23.6514 16.3045 21.5499L16.1809 21.0555L16.6754 21.1482C17.7261 21.3645 18.8077 21.4881 19.8893 21.4881C21.3418 21.4881 22.7633 21.3027 24.154 20.901L24.6484 20.7465L24.5557 21.2409C24.0922 23.4969 22.3616 25.1038 20.3838 25.1038ZM17.0462 21.8899C17.6334 23.4351 18.9313 24.4858 20.3838 24.4858C21.898 24.4858 23.2887 23.3114 23.8141 21.6427C22.5161 21.9826 21.2182 22.1371 19.8893 22.1371C18.9313 22.1371 17.9733 22.0444 17.0462 21.8899Z" fill="#080808"/>
</g>
<g filter="url(#filter1_d_1976_58258)">
<circle cx="37.3333" cy="16" r="16" fill="#B4DDC5"/>
<path d="M45.0624 17.9669C45.0624 13.1197 41.1847 7.39998 38.341 5.81656C38.0825 5.65499 37.8886 5.4611 37.727 5.2349C37.4039 4.78249 36.7576 4.65323 36.3052 4.97638C36.2082 5.04101 36.1436 5.10564 36.079 5.20258C35.8528 5.52573 35.5619 5.78425 35.2065 6.01045C32.2335 7.75544 28.8728 13.2489 28.8728 17.9669C28.8728 22.911 33.2676 28.2106 35.8528 29.4062C35.8528 29.9879 36.3052 30.4403 36.8868 30.4403C37.4685 30.4403 37.9209 29.9879 37.9209 29.4062C37.9209 29.3739 37.9209 29.3416 37.8886 29.3093C40.4738 27.9198 45.0624 22.8141 45.0624 17.9669Z" fill="#F3F14F"/>
<path d="M36.8867 30.6665C36.5313 30.6665 36.2404 30.5373 35.9819 30.3111C35.788 30.1172 35.6588 29.8587 35.6264 29.5678C33.0736 28.2753 28.6465 23.0403 28.6465 17.9669C28.6465 13.1843 32.0718 7.59389 35.1094 5.78427C35.4002 5.59038 35.6588 5.36417 35.885 5.07334C35.9819 4.9764 36.0789 4.87946 36.1758 4.81483C36.4666 4.62094 36.7898 4.55631 37.1452 4.58862C37.4684 4.65325 37.7592 4.84714 37.9854 5.10566C38.1147 5.33186 38.3086 5.49343 38.5025 5.62269C41.6047 7.33537 45.3532 13.2166 45.3532 17.9669C45.3532 22.911 40.7645 27.9844 38.1793 29.4386C38.147 30.1172 37.5653 30.6665 36.8867 30.6665ZM36.8867 5.04103C36.7251 5.04103 36.5636 5.10566 36.4343 5.2026C36.3697 5.26723 36.3051 5.29955 36.2727 5.36418C36.0142 5.68732 35.7234 5.97815 35.3356 6.20436C32.395 7.94935 29.1312 13.3459 29.1312 17.9669C29.1312 22.9433 33.5583 28.0491 35.9819 29.1801L36.1435 29.2447V29.4063C36.1435 29.6325 36.2404 29.8264 36.3697 29.9556C36.5313 30.1172 36.7251 30.1818 36.919 30.1818C37.3391 30.1818 37.6946 29.8264 37.6946 29.374C37.6946 29.3416 37.6946 29.3416 37.6946 29.3093L37.6623 29.1154L37.8238 29.0185C40.2798 27.7259 44.8684 22.7495 44.8684 17.9023C44.8684 13.0874 40.926 7.43231 38.2762 5.97815C37.9854 5.81658 37.7592 5.59038 37.5976 5.33186C37.4684 5.17029 37.3068 5.04103 37.0806 5.00871C36.9837 5.04103 36.919 5.04103 36.8867 5.04103Z" fill="#00081E"/>
<path d="M33.8816 19.3242C35.6127 19.3242 37.0161 17.7327 37.0161 15.7696C37.0161 13.8064 35.6127 12.215 33.8816 12.215C32.1504 12.215 30.7471 13.8064 30.7471 15.7696C30.7471 17.7327 32.1504 19.3242 33.8816 19.3242Z" fill="#F2EAE0"/>
<path d="M33.8815 19.5827C32.0072 19.5827 30.5208 17.87 30.5208 15.7695C30.5208 13.6691 32.0395 11.9564 33.8815 11.9564C35.7557 11.9564 37.2745 13.6691 37.2745 15.7695C37.2745 17.87 35.7557 19.5827 33.8815 19.5827ZM33.8815 12.4735C32.2981 12.4735 31.0055 13.9599 31.0055 15.7695C31.0055 17.5792 32.2981 19.0656 33.8815 19.0656C35.4649 19.0656 36.7575 17.5792 36.7575 15.7695C36.7575 13.9599 35.4972 12.4735 33.8815 12.4735Z" fill="#00081E"/>
<path d="M40.0212 19.3242C41.7524 19.3242 43.1558 17.7327 43.1558 15.7696C43.1558 13.8064 41.7524 12.215 40.0212 12.215C38.2901 12.215 36.8867 13.8064 36.8867 15.7696C36.8867 17.7327 38.2901 19.3242 40.0212 19.3242Z" fill="#F2EAE0"/>
<path d="M40.0211 19.5827C38.1469 19.5827 36.6604 17.87 36.6604 15.7695C36.6604 13.6691 38.1792 11.9564 40.0211 11.9564C41.8954 11.9564 43.4142 13.6691 43.4142 15.7695C43.4142 17.87 41.8631 19.5827 40.0211 19.5827ZM40.0211 12.4735C38.4377 12.4735 37.1451 13.9599 37.1451 15.7695C37.1451 17.5792 38.4377 19.0656 40.0211 19.0656C41.6045 19.0656 42.8971 17.5792 42.8971 15.7695C42.8971 13.9599 41.6045 12.4735 40.0211 12.4735Z" fill="#00081E"/>
<path d="M36.3697 22.6527C35.3356 22.6527 34.3339 22.5558 33.2998 22.3296C33.7522 24.1069 35.1417 25.4318 36.8221 25.4318C38.5671 25.4318 40.0213 24.01 40.409 22.1034C39.0841 22.4912 37.7269 22.6527 36.3697 22.6527Z" fill="#EEEEE7"/>
<path d="M36.822 25.6901C35.077 25.6901 33.5582 24.3652 33.0735 22.4263L32.9766 22.0385L33.3643 22.1355C34.3661 22.3293 35.3678 22.4263 36.3373 22.4263C37.6945 22.4586 39.0194 22.2324 40.312 21.8769L40.6998 21.7477L40.6028 22.1355C40.2474 24.2359 38.6639 25.6901 36.822 25.6901ZM33.6552 22.6525C34.1722 24.139 35.4325 25.173 36.822 25.173C38.3085 25.173 39.6011 24.0743 40.0535 22.4263C38.8578 22.7494 37.5976 22.911 36.3373 22.8787C35.4325 22.911 34.56 22.8464 33.6552 22.6525Z" fill="#00081E"/>
<path d="M35.4 25.3023C36.0603 25.3023 36.5956 25.0564 36.5956 24.753C36.5956 24.4496 36.0603 24.2036 35.4 24.2036C34.7397 24.2036 34.2043 24.4496 34.2043 24.753C34.2043 25.0564 34.7397 25.3023 35.4 25.3023Z" fill="#E54B4D"/>
<path d="M35.4002 25.5609C34.6893 25.5609 33.946 25.3024 33.946 24.7531C33.946 24.236 34.657 23.9452 35.4002 23.9452C36.1434 23.9452 36.8544 24.2037 36.8544 24.7531C36.8544 25.3024 36.1111 25.5609 35.4002 25.5609ZM35.4002 24.4945C34.7862 24.4945 34.4308 24.7207 34.4308 24.7854C34.4308 24.8823 34.7862 25.0762 35.4002 25.0762C36.0142 25.0762 36.3696 24.85 36.3696 24.7854C36.3696 24.6884 36.0142 24.4945 35.4002 24.4945Z" fill="#00081E"/>
<path d="M37.0482 25.6256C37.7085 25.6256 38.2438 25.3796 38.2438 25.0762C38.2438 24.7728 37.7085 24.5269 37.0482 24.5269C36.3878 24.5269 35.8525 24.7728 35.8525 25.0762C35.8525 25.3796 36.3878 25.6256 37.0482 25.6256Z" fill="#E54B4D"/>
<path d="M37.0482 25.8517C36.3372 25.8517 35.594 25.5932 35.594 25.0438C35.594 24.4945 36.3049 24.236 37.0482 24.236C37.7914 24.236 38.5023 24.4945 38.5023 25.0438C38.5023 25.5932 37.7591 25.8517 37.0482 25.8517ZM37.0482 24.753C36.4342 24.753 36.0787 24.9792 36.0787 25.0438C36.0787 25.1408 36.4342 25.3347 37.0482 25.3347C37.6621 25.3347 38.0176 25.1085 38.0176 25.0438C37.9853 24.9792 37.6298 24.753 37.0482 24.753Z" fill="#00081E"/>
<path d="M36.822 25.4318C35.2386 25.4318 33.8168 24.2039 33.3643 22.4912L33.332 22.3619L33.4613 22.3943C34.4307 22.5881 35.4002 22.6851 36.3696 22.6851C37.6622 22.7174 38.9871 22.5235 40.2474 22.1681L40.3766 22.1357L40.3443 22.265C39.9565 24.1069 38.5347 25.4318 36.822 25.4318ZM33.5905 22.5235C34.043 24.1392 35.3679 25.2379 36.8543 25.2379C38.4377 25.2379 39.7626 24.0423 40.1827 22.2973C38.9548 22.6205 37.6945 22.782 36.4342 22.782C35.4325 22.8143 34.4954 22.7174 33.5905 22.5235Z" fill="#00081E"/>
<path d="M35.9819 11.7948C35.9173 11.7948 35.8849 11.7625 35.8203 11.7302C34.7539 10.9869 33.3644 10.89 32.2334 11.5363C32.1041 11.6009 31.9749 11.5686 31.9102 11.4393C31.8456 11.3101 31.8779 11.1808 32.0072 11.1162C33.2998 10.4053 34.9155 10.4699 36.1111 11.3424C36.2404 11.4393 36.2404 11.5686 36.1758 11.6978C36.1111 11.7625 36.0465 11.7948 35.9819 11.7948Z" fill="#00081E"/>
<path d="M41.9924 11.7948C41.9278 11.7948 41.8954 11.7625 41.8308 11.7302C40.7644 10.9869 39.3749 10.89 38.2439 11.5363C38.1146 11.6009 37.9854 11.5686 37.9207 11.4393C37.8561 11.3101 37.8884 11.1808 38.0177 11.1162C39.3103 10.4053 40.926 10.4699 42.1216 11.3424C42.2509 11.4393 42.2509 11.5686 42.1863 11.6978C42.154 11.7625 42.0893 11.7948 41.9924 11.7948Z" fill="#00081E"/>
<path d="M41.7016 21.2306C38.7933 23.2018 35.0125 23.331 31.9426 21.5861L41.7016 21.2306Z" fill="#F3F14F"/>
<path d="M36.8869 23.0403C35.1419 23.105 33.3969 22.6849 31.8135 21.7801L32.072 21.36C35.0126 23.0727 38.7611 22.9434 41.5725 21.0045L41.8633 21.4246C40.3769 22.4264 38.6319 22.9757 36.8869 23.0403Z" fill="#00081E"/>
<path d="M42.4124 21.7802C41.7015 21.8125 41.0552 21.2631 41.0228 20.5199C40.9905 20.3906 41.1198 20.2614 41.249 20.2614C41.3783 20.2291 41.5076 20.3583 41.5076 20.4876C41.5399 20.9723 41.96 21.3278 42.4124 21.2954C42.5416 21.2631 42.6709 21.3924 42.6709 21.5216C42.7032 21.6509 42.5739 21.7802 42.4447 21.7802H42.4124Z" fill="#00081E"/>
<path d="M31.2316 22.1679C31.1993 22.1679 31.1993 22.1679 31.167 22.1679C31.0377 22.1679 30.9084 22.0387 30.9084 21.9094C30.9084 21.7802 31.0377 21.6509 31.167 21.6509C31.6517 21.6186 32.0395 21.2631 32.0395 20.7784C32.0395 20.6492 32.1687 20.5199 32.298 20.5199C32.4272 20.5199 32.5565 20.6492 32.5565 20.7784C32.5565 21.554 31.9748 22.1679 31.2316 22.1679Z" fill="#00081E"/>
<path d="M42.8649 0.290772C42.8973 0.323086 42.9296 3.42529 41.637 5.04102C40.3444 6.65676 38.6317 7.43231 37.7915 6.7537L37.7592 6.72139L37.7269 6.68907C36.8867 6.04278 37.2422 4.16853 38.5348 2.5528C39.8274 0.937065 42.8649 0.258457 42.8649 0.290772Z" fill="#609C3F"/>
<path d="M38.567 7.20616C38.2115 7.20616 37.9207 7.10922 37.6622 6.91533L37.5976 6.8507C37.3067 6.6245 37.1128 6.26904 37.0482 5.78432C36.919 4.81488 37.436 3.48998 38.3408 2.35897C39.698 0.646293 42.8002 0 42.8325 0L42.9295 0L42.9941 0.0646293L43.0911 0.129259L43.1234 0.258517C43.1234 0.290832 43.2203 3.45767 41.8631 5.17034C40.829 6.46293 39.5364 7.20616 38.567 7.20616ZM42.6387 0.581663C41.8631 0.775551 39.7303 1.42184 38.7286 2.68212C37.8884 3.71618 37.436 4.91183 37.5329 5.75201C37.5653 6.07515 37.6945 6.30135 37.8884 6.46293L37.9853 6.52756C38.6963 7.07691 40.312 6.33367 41.4753 4.8472C42.4125 3.65155 42.6063 1.42184 42.6387 0.581663Z" fill="#00081E"/>
<path d="M42.6425 0.166502L37.5732 6.53943L37.9526 6.84117L43.0218 0.468239L42.6425 0.166502Z" fill="#00081E"/>
<path d="M40.5192 1.14845L40.0359 1.18591L40.2007 3.31228L40.684 3.27482L40.5192 1.14845Z" fill="#00081E"/>
<path d="M38.7946 2.43536L38.322 2.54297L38.8888 5.032L39.3614 4.9244L38.7946 2.43536Z" fill="#00081E"/>
<path d="M39.9259 3.83431L39.8196 4.30725L41.869 4.76786L41.9753 4.29492L39.9259 3.83431Z" fill="#00081E"/>
<path d="M41.5207 1.80542L41.4448 2.28418L42.6577 2.47648L42.7336 1.99772L41.5207 1.80542Z" fill="#00081E"/>
<path d="M38.4821 5.66763L38.3577 6.13611L40.1379 6.60893L40.2623 6.14045L38.4821 5.66763Z" fill="#00081E"/>
<path d="M37.722 4.30481L37.2559 4.43787L37.8236 6.42659L38.2897 6.29353L37.722 4.30481Z" fill="#00081E"/>
<path d="M32.718 24.6239C32.718 24.6239 33.9137 24.0745 34.0429 24.2038C34.2045 24.3653 35.6263 25.3348 35.6263 25.3348L37.339 25.3994L39.1809 24.6562L39.4718 26.078L37.3067 27.9846L36.6604 28.0169L33.8167 25.9811L32.718 24.6239Z" fill="#F3F14F"/>
<path d="M36.822 25.6901C35.077 25.6901 33.5582 24.3652 33.0735 22.4263L32.9766 22.0385L33.3643 22.1355C34.3661 22.3293 35.3678 22.4263 36.3373 22.4263C37.6945 22.4586 39.0194 22.2324 40.312 21.8769L40.6998 21.7477L40.6028 22.1355C40.2474 24.2359 38.6639 25.6901 36.822 25.6901ZM33.6552 22.6525C34.1722 24.139 35.4325 25.173 36.822 25.173C38.3085 25.173 39.6011 24.0743 40.0535 22.4263C38.8578 22.7494 37.5976 22.911 36.3373 22.8787C35.4325 22.911 34.56 22.8464 33.6552 22.6525Z" fill="#00081E"/>
<path d="M40.0213 13.7982C39.0842 13.7982 38.3409 14.5091 38.2117 15.4139H39.2134L38.2763 16.1249C38.5025 16.8681 39.1811 17.4498 40.0213 17.4498C41.023 17.4498 41.8309 16.6419 41.8309 15.6402C41.8309 14.6384 41.023 13.7982 40.0213 13.7982Z" fill="#00081E"/>
<path d="M33.752 13.7982C32.8149 13.7982 32.0716 14.5091 31.9424 15.4139H32.9441L32.007 16.1249C32.2332 16.8681 32.9118 17.4498 33.752 17.4498C34.7538 17.4498 35.5616 16.6419 35.5616 15.6402C35.5616 14.6384 34.7538 13.7982 33.752 13.7982Z" fill="#00081E"/>
<path d="M37.5007 13.8306L37.6946 13.5721C38.244 12.7965 39.0842 12.3441 40.0213 12.3441C40.9584 12.3441 41.7986 12.7965 42.3479 13.5721L42.5418 13.8306H37.5007Z" fill="#F4F43B"/>
<path d="M39.9889 12.5058C40.8937 12.5058 41.6692 12.9582 42.1863 13.6691H37.7915C38.3085 12.9582 39.0841 12.5058 39.9889 12.5058ZM39.9889 12.1826C39.0194 12.1826 38.1146 12.6673 37.533 13.4752L37.1775 13.9922H37.7915H42.1539H42.7679L42.4125 13.4752C41.8631 12.6673 40.9583 12.1826 39.9889 12.1826Z" fill="#00071F"/>
<path d="M31.3928 13.8307L31.5544 13.5722C32.1037 12.7966 32.9439 12.3442 33.8811 12.3442C34.8182 12.3442 35.6584 12.7966 36.2077 13.5722L36.4016 13.8307H31.3928Z" fill="#F4F43B"/>
<path d="M33.8814 12.5059C34.7863 12.5059 35.5618 12.9583 36.0788 13.6692H31.684C32.2011 12.9583 32.9766 12.5059 33.8814 12.5059ZM33.8814 12.1827C32.912 12.1827 32.0072 12.6675 31.4255 13.4753L31.0701 13.9924H31.684H36.0788H36.6928L36.3374 13.4753C35.7557 12.6675 34.8509 12.1827 33.8814 12.1827Z" fill="#00071F"/>
<path d="M30.7794 2.86037L29.7423 1.61584L29.2445 3.19224L28 4.27083L29.5764 4.72716L30.655 5.97168L31.1113 4.39529L32.3558 3.35818L30.7794 2.86037Z" fill="#75D1FF"/>
</g>
<defs>
<filter id="filter0_d_1976_58258" x="0" y="0" width="40" height="40" filterUnits="userSpaceOnUse" color-interpolation-filters="sRGB">
<feFlood flood-opacity="0" result="BackgroundImageFix"/>
<feColorMatrix in="SourceAlpha" type="matrix" values="0 0 0 0 0 0 0 0 0 0 0 0 0 0 0 0 0 0 127 0" result="hardAlpha"/>
<feOffset dy="4"/>
<feGaussianBlur stdDeviation="2"/>
<feComposite in2="hardAlpha" operator="out"/>
<feColorMatrix type="matrix" values="0 0 0 0 0 0 0 0 0 0 0 0 0 0 0 0 0 0 0.25 0"/>
<feBlend mode="normal" in2="BackgroundImageFix" result="effect1_dropShadow_1976_58258"/>
<feBlend mode="normal" in="SourceGraphic" in2="effect1_dropShadow_1976_58258" result="shape"/>
</filter>
<filter id="filter1_d_1976_58258" x="17.3333" y="0" width="40" height="40" filterUnits="userSpaceOnUse" color-interpolation-filters="sRGB">
<feFlood flood-opacity="0" result="BackgroundImageFix"/>
<feColorMatrix in="SourceAlpha" type="matrix" values="0 0 0 0 0 0 0 0 0 0 0 0 0 0 0 0 0 0 127 0" result="hardAlpha"/>
<feOffset dy="4"/>
<feGaussianBlur stdDeviation="2"/>
<feComposite in2="hardAlpha" operator="out"/>
<feColorMatrix type="matrix" values="0 0 0 0 0 0 0 0 0 0 0 0 0 0 0 0 0 0 0.25 0"/>
<feBlend mode="normal" in2="BackgroundImageFix" result="effect1_dropShadow_1976_58258"/>
<feBlend mode="normal" in="SourceGraphic" in2="effect1_dropShadow_1976_58258" result="shape"/>
</filter>
</defs>
</svg>
