<svg width="19" height="15" viewBox="0 0 19 15" fill="none" xmlns="http://www.w3.org/2000/svg">
<path d="M0 0.857926C0 0.384107 0.384106 0 0.857925 0H17.5649C18.0387 0 18.4228 0.384106 18.4228 0.857925V6.81824C18.4228 7.29206 18.0387 7.67617 17.5649 7.67617H0.857925C0.384106 7.67617 0 7.29206 0 6.81824V0.857926Z" fill="#081952"/>
<path fill-rule="evenodd" clip-rule="evenodd" d="M1.28689 1.28689V6.38928H17.1359V1.28689H1.28689ZM0.857925 0C0.384106 0 0 0.384107 0 0.857926V6.81824C0 7.29206 0.384106 7.67617 0.857925 7.67617H17.5649C18.0387 7.67617 18.4228 7.29206 18.4228 6.81824V0.857925C18.4228 0.384106 18.0387 0 17.5649 0H0.857925Z" fill="#FF4A67"/>
<path fill-rule="evenodd" clip-rule="evenodd" d="M2.30273 3.9618C2.30273 3.60644 2.59081 3.31836 2.94618 3.31836H15.428C15.7834 3.31836 16.0714 3.60644 16.0714 3.9618C16.0714 4.31717 15.7834 4.60525 15.428 4.60525H2.94618C2.59081 4.60525 2.30273 4.31717 2.30273 3.9618Z" fill="#FF4A67"/>
<path d="M4.06396 3.43164H9.21151H14.3591V13.7267C14.3591 14.2006 13.975 14.5847 13.5011 14.5847H4.92189C4.44807 14.5847 4.06396 14.2006 4.06396 13.7267V3.43164Z" fill="#081952"/>
<path fill-rule="evenodd" clip-rule="evenodd" d="M13.0722 13.2978V4.71853H5.35085V13.2978H13.0722ZM4.06396 3.43164V13.7267C4.06396 14.2006 4.44807 14.5847 4.92189 14.5847H13.5011C13.975 14.5847 14.3591 14.2006 14.3591 13.7267V3.43164H4.06396Z" fill="#FF4A67"/>
<circle cx="9.21097" cy="8.58108" r="1.71585" fill="#FF4A67"/>
</svg>
