<svg width="320" height="163" viewBox="0 0 320 163" fill="none" xmlns="http://www.w3.org/2000/svg">
<g opacity="0.5">
<rect x="0.5" y="0.5" width="319" height="161.305" rx="11.5" stroke="#C1CDF6"/>
<rect x="22.6323" y="25.3989" width="110.585" height="116.118" rx="11.5" stroke="#C1CDF6"/>
<rect x="152.161" y="47.0317" width="70.0865" height="0.92219" fill="#C1CDF6"/>
<rect width="113.429" height="0.92219" transform="matrix(1 0 0 -1 152.161 60.8647)" fill="#C1CDF6"/>
<rect x="151.239" y="103.285" width="97.7522" height="0.92219" fill="#C1CDF6"/>
<rect x="151.239" y="126.34" width="34.121" height="0.92219" fill="#C1CDF6"/>
<path d="M77.4637 81.1526C83.7476 81.1526 88.8373 76.0629 88.8373 69.779C88.8373 63.495 83.7476 58.4053 77.4637 58.4053C71.1797 58.4053 66.09 63.495 66.09 69.779C66.09 76.0629 71.1797 81.1526 77.4637 81.1526ZM77.4637 86.8395C69.8717 86.8395 54.7163 90.6497 54.7163 98.2131V103.9H100.211V98.2131C100.211 90.6497 85.0556 86.8395 77.4637 86.8395Z" fill="#C1CDF6"/>
</g>
</svg>
