<svg width="113" height="128" viewBox="0 0 113 128" fill="none" xmlns="http://www.w3.org/2000/svg">
<path d="M154 75.1026C154.018 60.94 150.029 47.0616 142.494 35.073C134.959 23.0844 124.186 13.4756 111.421 7.35813C98.6565 1.24066 84.4219 -1.13544 70.3641 0.504723C56.3063 2.14488 42.9998 7.73428 31.984 16.6263L31.9176 16.5408C1.96387 38.3211 -8.40654 77.875 7.2487 110.612C11.5795 119.664 17.6497 127.774 25.1128 134.479C32.5758 141.183 41.2854 146.351 50.7444 149.687C60.2034 153.023 70.2264 154.462 80.2412 153.922C90.2559 153.382 100.066 150.873 109.112 146.539C114.805 143.814 119.435 139.712 123.932 135.734L125.773 134.111L125.593 133.883C134.449 126.861 141.604 117.927 146.523 107.748C151.443 97.5693 153.998 86.4093 154 75.1026ZM78.9687 145.362C65.0822 145.362 51.5075 141.241 39.9613 133.521C28.4151 125.801 19.4159 114.828 14.1018 101.99C8.78768 89.1514 7.39726 75.0247 10.1064 61.3958C12.8155 47.7669 19.5025 35.2479 29.3217 25.422C39.141 15.5961 51.6514 8.90462 65.2711 6.19366C78.8908 3.4827 93.0079 4.87407 105.837 10.1918C118.667 15.5095 129.632 24.5148 137.347 36.0688C145.062 47.6229 149.18 61.2067 149.18 75.1026C149.16 93.7294 141.756 111.587 128.593 124.758C115.43 137.928 97.5828 145.335 78.9687 145.352V145.362Z" fill="url(#paint0_radial_1896_13643)"/>
<path d="M136.628 79.1377H92.0342L84.6336 83.733C79.2064 99.8736 73.2479 111.4 70.5154 110.583C67.299 109.634 69.5666 92.4015 75.5915 72.0928C81.6164 51.7842 89.0929 36.0993 92.3094 37.0488C95.023 37.8558 93.8085 50.341 89.7286 66.4057L97.395 72.2732H135.347L142.795 67.2032C140.789 50.9531 132.672 36.0779 120.096 25.6038C107.519 15.1296 91.4272 9.84327 75.0938 10.8201C58.7604 11.7969 43.4124 18.9636 32.1719 30.8621C20.9314 42.7607 14.6428 58.4974 14.5854 74.8709C14.5279 91.2444 20.706 107.025 31.8628 119.002C43.0196 130.979 58.317 138.253 74.6432 139.345C90.9693 140.436 107.098 135.263 119.748 124.878C132.397 114.492 140.618 99.6744 142.738 83.4387L136.628 79.1377Z" fill="url(#paint1_radial_1896_13643)"/>
<defs>
<radialGradient id="paint0_radial_1896_13643" cx="0" cy="0" r="1" gradientUnits="userSpaceOnUse" gradientTransform="translate(140.384 154.033) rotate(-129.275) scale(180.228 162.961)">
<stop stop-color="#63BEDB"/>
<stop offset="0.33928" stop-color="#56E77E"/>
<stop offset="0.520833" stop-color="#6DE7B4"/>
<stop offset="1" stop-color="#E2FCC2"/>
</radialGradient>
<radialGradient id="paint1_radial_1896_13643" cx="0" cy="0" r="1" gradientUnits="userSpaceOnUse" gradientTransform="translate(131.459 139.488) rotate(-129.156) scale(150.429 135.901)">
<stop stop-color="#63BEDB"/>
<stop offset="0.33928" stop-color="#56E77E"/>
<stop offset="0.520833" stop-color="#6DE7B4"/>
<stop offset="1" stop-color="#E2FCC2"/>
</radialGradient>
</defs>
</svg>
