<svg width="256" height="64" viewBox="0 0 256 64" fill="none" xmlns="http://www.w3.org/2000/svg">
<path d="M83.1366 24.9C82.7805 24.2027 82.2593 23.6033 81.6184 23.1543C80.9239 22.6604 80.1699 22.2563 79.3744 21.9514C78.5258 21.6266 77.6449 21.3942 76.7466 21.2581C75.8671 21.1119 74.9772 21.0365 74.0855 21.0326C73.2936 21.0626 72.5075 21.1803 71.7414 21.3834C71.1116 21.5387 70.5207 21.8231 70.0063 22.2187V41.372C69.969 42.5025 70.1184 43.6314 70.4484 44.7131C70.7915 45.6507 71.2814 46.5276 71.8999 47.3109V47.503H58.3358V47.3109C58.9512 46.5255 59.4409 45.6491 59.7873 44.7131C60.1134 43.6305 60.2627 42.5022 60.2294 41.372V25.1506C60.2627 24.0203 60.1134 22.8921 59.7873 21.8094C59.4409 20.8734 58.9512 19.9971 58.3358 19.2117V19.0196L69.4057 15.8705L70.073 20.3978C70.4884 19.4349 71.0894 18.5635 71.8415 17.8335C72.6129 17.0892 73.4865 16.4592 74.4359 15.9624C75.4277 15.4498 76.4863 15.0786 77.5808 14.8598C78.6777 14.6313 79.798 14.536 80.9176 14.5758C82.4426 14.5802 83.9583 14.814 85.414 15.2691L83.3285 24.9H83.1366Z" fill="url(#paint0_radial_999_488)"/>
<path d="M102.69 48.1545C100.196 48.2028 97.7221 47.7039 95.4411 46.6928C93.4533 45.7945 91.6682 44.5015 90.194 42.8922C88.784 41.338 87.6978 39.5177 86.999 37.538C86.2856 35.5555 85.9215 33.4641 85.9229 31.3568C85.9203 29.2578 86.2613 27.1726 86.9322 25.184C87.5896 23.2126 88.6333 21.3923 90.0021 19.8298C91.4462 18.2125 93.2141 16.9176 95.1909 16.0292C97.5111 15.0131 100.025 14.5171 102.557 14.5758C104.729 14.5337 106.89 14.908 108.922 15.6784C110.655 16.3544 112.243 17.3551 113.602 18.627C114.881 19.8476 115.902 21.3133 116.605 22.9371C117.326 24.5992 117.733 26.3805 117.806 28.1911C117.806 28.9094 117.656 29.3521 117.339 29.5276C116.847 29.7265 116.317 29.8122 115.787 29.7781H95.5996C95.8993 31.1867 96.4112 32.5415 97.1179 33.7959C97.8309 35.0735 98.7758 36.2066 99.9041 37.1371C101.123 38.1281 102.519 38.8791 104.017 39.3506C105.797 39.9008 107.662 40.1271 109.522 40.0188C111.277 39.9488 113.003 39.5493 114.611 38.8411C116.118 38.2164 117.36 37.085 118.123 35.6419L118.699 35.9008C118.313 37.5579 117.683 39.1484 116.83 40.6202C115.963 42.1098 114.832 43.4288 113.493 44.5127C112.089 45.66 110.493 46.5506 108.78 47.1438C106.823 47.8285 104.763 48.1704 102.69 48.1545ZM108.955 28.1911C108.922 26.5563 108.772 24.9261 108.505 23.313C108.301 21.9813 107.896 20.6885 107.303 19.479C106.832 18.4899 106.128 17.6301 105.251 16.9731C104.39 16.3696 103.358 16.0592 102.307 16.0877C101.137 16.0671 99.993 16.4341 99.0532 17.1318C98.0716 17.8591 97.2697 18.8021 96.7091 19.8883C96.0752 21.0952 95.6467 22.3994 95.4411 23.7473C95.2097 25.2148 95.1788 26.707 95.3494 28.1827L108.955 28.1911Z" fill="url(#paint1_radial_999_488)"/>
<path d="M155.771 41.372C155.737 42.5023 155.887 43.6305 156.213 44.7131C156.558 45.6547 157.048 46.5367 157.664 47.3276V47.5197H144.067V47.3276C144.684 46.5424 145.177 45.6661 145.527 44.7298C145.853 43.6472 146.002 42.519 145.969 41.3887V27.1135C146.007 25.8329 145.768 24.559 145.268 23.3798C144.87 22.4391 144.259 21.604 143.483 20.9407C142.751 20.3328 141.898 19.8885 140.98 19.6377C140.072 19.3905 139.135 19.2641 138.194 19.2618C137.13 19.2563 136.072 19.417 135.057 19.7379C134.208 19.9751 133.422 20.3972 132.755 20.9742V41.372C132.718 42.5025 132.867 43.6314 133.197 44.7131C133.54 45.6507 134.03 46.5276 134.649 47.3109V47.503H121.034V47.3109C121.652 46.5257 122.145 45.6494 122.494 44.7131C122.82 43.6305 122.97 42.5023 122.936 41.372V25.1506C122.97 24.0203 122.82 22.8921 122.494 21.8094C122.145 20.8732 121.652 19.9969 121.034 19.2117V19.0196L132.113 15.8705L132.613 19.5458C133.012 18.7277 133.581 18.0043 134.282 17.4242C135.014 16.7992 135.828 16.2765 136.701 15.8705C137.601 15.4539 138.544 15.1347 139.512 14.9183C140.427 14.7169 141.361 14.6133 142.298 14.6092C144.548 14.5415 146.791 14.9044 148.905 15.6784C150.497 16.2788 151.926 17.246 153.076 18.5017C154.072 19.6523 154.786 21.0193 155.162 22.4944C155.566 24.0459 155.768 25.6436 155.762 27.2472L155.771 41.372Z" fill="url(#paint2_radial_999_488)"/>
<path d="M175.132 48.1545C172.925 48.2075 170.739 47.7049 168.776 46.6928C167.026 45.7573 165.494 44.4621 164.279 42.8922C163.06 41.2899 162.149 39.4742 161.593 37.538C161.003 35.531 160.705 33.4491 160.709 31.3568C160.708 29.2651 161.017 27.1848 161.627 25.184C162.198 23.2493 163.117 21.435 164.338 19.8298C165.556 18.2534 167.098 16.9573 168.859 16.0292C170.795 15.032 172.948 14.5325 175.124 14.5758C176.061 14.5843 176.994 14.6879 177.91 14.8849C178.918 15.0984 179.904 15.406 180.855 15.8037C181.799 16.198 182.695 16.6997 183.524 17.2989C184.274 17.8333 184.9 18.5227 185.36 19.3203V9.29679C185.395 8.1658 185.243 7.03678 184.909 5.95563C184.558 5.01002 184.056 4.12725 183.424 3.34116V3.16575L195.103 0V41.372C195.07 42.5023 195.219 43.6305 195.545 44.7131C195.895 45.6494 196.387 46.5257 197.005 47.3109V47.503H185.952L185.577 43.5688C185.209 44.4115 184.618 45.1368 183.866 45.6654C183.044 46.2656 182.139 46.7439 181.18 47.0854C180.175 47.4637 179.136 47.7434 178.077 47.9206C177.103 48.0732 176.118 48.1513 175.132 48.1545ZM185.326 20.8823C184.741 20.2966 184.022 19.8611 183.232 19.6126C182.422 19.3619 181.578 19.2352 180.73 19.2368C178.849 19.1849 177.014 19.827 175.575 21.041C174.155 22.2418 173.057 23.7776 172.38 25.5098C171.642 27.3715 171.254 29.3539 171.237 31.3568C171.172 33.3492 171.495 35.3352 172.188 37.2039C172.833 38.9358 173.91 40.474 175.316 41.6727C176.436 42.5292 177.745 43.1032 179.133 43.346C180.521 43.5888 181.947 43.4933 183.291 43.0676C184.081 42.8033 184.798 42.357 185.385 41.7646L185.326 20.8823Z" fill="url(#paint3_radial_999_488)"/>
<path d="M214.24 47.5197H200.634V47.3276C201.253 46.5443 201.742 45.6674 202.086 44.7298C202.419 43.6487 202.571 42.5197 202.536 41.3887V9.31349C202.571 8.1825 202.419 7.05348 202.086 5.97233C201.746 5.02303 201.256 4.13463 200.634 3.34116V3.16575L212.313 0V41.372C212.28 42.5023 212.429 43.6305 212.755 44.7131C213.105 45.6494 213.597 46.5257 214.215 47.3109L214.24 47.5197Z" fill="url(#paint4_radial_999_488)"/>
<path d="M256 16.0292C254.568 16.914 253.302 18.0451 252.263 19.3704C251.15 20.7746 250.157 22.2694 249.293 23.8392C248.412 25.4452 247.622 27.0988 246.924 28.7925C246.198 30.5048 245.506 32.1336 244.83 33.5787L238.44 47.5197C238.023 48.4469 237.556 49.491 237.047 50.6521C236.538 51.8131 235.971 53.0159 235.379 54.2605C234.741 55.5174 234.03 56.7362 233.251 57.9107C232.507 59.0491 231.637 60.0999 230.657 61.0431C229.738 61.9356 228.682 62.6745 227.529 63.2315C226.385 63.7783 225.125 64.0391 223.858 63.9917C222.632 64.0271 221.407 63.8865 220.221 63.574C219.054 63.3103 217.932 62.8739 216.893 62.2793L223.283 54.6113H223.474C223.504 55.0674 223.63 55.5121 223.842 55.9165C224.055 56.3208 224.35 56.6759 224.709 56.9585C225.494 57.5006 226.418 57.8066 227.371 57.8407C228.325 57.8747 229.268 57.6353 230.09 57.1506C230.854 56.657 231.545 56.058 232.142 55.3714C232.803 54.6187 233.387 53.8016 233.885 52.9324C234.411 52.0219 234.886 51.1532 235.312 50.3012L232.901 45.8074L220.755 21.9849C220.076 20.6929 219.412 19.4901 218.761 18.3764C218.125 17.2909 217.131 16.4611 215.95 16.0292V15.8705H232.742V16.0626C232.293 16.3914 231.914 16.8068 231.627 17.2845C231.341 17.7622 231.153 18.2925 231.074 18.8442C231.041 19.9434 231.313 21.0304 231.858 21.9849L240.592 38.9663L243.095 33.4534C243.773 31.9777 244.471 30.3935 245.189 28.7006C245.871 27.1261 246.369 25.478 246.674 23.7891C246.952 22.3156 246.887 20.7975 246.482 19.3537C246.247 18.6253 245.865 17.953 245.36 17.3783C244.854 16.8036 244.237 16.3387 243.545 16.0125V15.8705H256.008L256 16.0292Z" fill="url(#paint5_radial_999_488)"/>
<path d="M53.122 29.4774C53.1269 24.59 51.7502 19.8009 49.1512 15.6639C46.5522 11.527 42.837 8.21095 38.435 6.09927C34.033 3.98758 29.1241 3.16645 24.2756 3.73081C19.4272 4.29516 14.8373 6.22195 11.0365 9.28844C5.775 13.1304 2.1337 18.7992 0.824433 25.1865C-0.484833 31.5738 0.632071 38.2204 3.9568 43.827C7.28152 49.4335 12.575 53.597 18.8025 55.5033C25.0299 57.4096 31.7435 56.9218 37.6309 54.1352C39.4992 53.136 41.2201 51.8823 42.7445 50.4098L43.3785 49.8418L43.3201 49.7666C46.3754 47.3431 48.8439 44.2593 50.5413 40.7459C52.2386 37.2325 53.1209 33.3803 53.122 29.4774ZM27.2617 53.7009C22.477 53.7009 17.7998 52.2802 13.8214 49.6185C9.84311 46.9568 6.74238 43.1736 4.91135 38.7473C3.08033 34.3211 2.60125 29.4505 3.5347 24.7517C4.46815 20.0528 6.7722 15.7366 10.1555 12.3489C13.5388 8.96115 17.8494 6.65409 22.5421 5.71943C27.2349 4.78476 32.0991 5.26447 36.5195 7.09788C40.94 8.93129 44.7183 12.0361 47.3765 16.0196C50.0348 20.0031 51.4536 24.6865 51.4536 29.4774C51.447 35.9065 48.8934 42.0703 44.3533 46.6164C39.8132 51.1624 33.6574 53.7193 27.2367 53.7259L27.2617 53.7009Z" fill="url(#paint6_radial_999_488)"/>
<path d="M47.1408 30.9058H31.7498L29.1971 32.4594C27.3201 38.0308 25.2763 42.0068 24.3253 41.7646C23.2159 41.4388 24 35.4915 26.0772 28.4834C28.1543 21.4753 30.732 16.0543 31.8415 16.3884C32.7758 16.6641 32.3587 20.9658 30.9573 26.5205L33.6017 28.5419H46.7153L49.268 26.7293C48.5563 21.1269 45.74 16.0064 41.3919 12.4093C37.0438 8.81221 31.4905 7.00874 25.8617 7.36574C20.2328 7.72274 14.9511 10.2134 11.091 14.3311C7.23096 18.4488 5.0824 23.8842 5.0824 29.5317C5.0824 35.1792 7.23096 40.6147 11.091 44.7323C14.9511 48.85 20.2328 51.3407 25.8617 51.6977C31.4905 52.0547 37.0438 50.2512 41.3919 46.6541C45.74 43.057 48.5563 37.9365 49.268 32.3341L47.1408 30.9058Z" fill="url(#paint7_radial_999_488)"/>
<defs>
<radialGradient id="paint0_radial_999_488" cx="0" cy="0" r="1" gradientUnits="userSpaceOnUse" gradientTransform="translate(83.0199 47.503) rotate(-123.919) scale(35.9502 30.7158)">
<stop stop-color="#63BEDB"/>
<stop offset="0.33928" stop-color="#56E77E"/>
<stop offset="0.520833" stop-color="#6DE7B4"/>
<stop offset="1" stop-color="#AFE9AD"/>
</radialGradient>
<radialGradient id="paint1_radial_999_488" cx="0" cy="0" r="1" gradientUnits="userSpaceOnUse" gradientTransform="translate(115.801 48.1577) rotate(-128.596) scale(38.9243 35.0164)">
<stop stop-color="#63BEDB"/>
<stop offset="0.33928" stop-color="#56E77E"/>
<stop offset="0.520833" stop-color="#6DE7B4"/>
<stop offset="1" stop-color="#AFE9AD"/>
</radialGradient>
<radialGradient id="paint2_radial_999_488" cx="0" cy="0" r="1" gradientUnits="userSpaceOnUse" gradientTransform="translate(154.426 47.5197) rotate(-132.307) scale(40.317 37.0304)">
<stop stop-color="#63BEDB"/>
<stop offset="0.33928" stop-color="#56E77E"/>
<stop offset="0.520833" stop-color="#6DE7B4"/>
<stop offset="1" stop-color="#AFE9AD"/>
</radialGradient>
<radialGradient id="paint3_radial_999_488" cx="0" cy="0" r="1" gradientUnits="userSpaceOnUse" gradientTransform="translate(193.796 48.1583) rotate(-121.652) scale(51.2427 42.235)">
<stop stop-color="#63BEDB"/>
<stop offset="0.33928" stop-color="#56E77E"/>
<stop offset="0.520833" stop-color="#6DE7B4"/>
<stop offset="1" stop-color="#AFE9AD"/>
</radialGradient>
<radialGradient id="paint4_radial_999_488" cx="0" cy="0" r="1" gradientUnits="userSpaceOnUse" gradientTransform="translate(213.037 47.5197) rotate(-103.18) scale(44.2064 18.1086)">
<stop stop-color="#63BEDB"/>
<stop offset="0.33928" stop-color="#56E77E"/>
<stop offset="0.520833" stop-color="#6DE7B4"/>
<stop offset="1" stop-color="#AFE9AD"/>
</radialGradient>
<radialGradient id="paint5_radial_999_488" cx="0" cy="0" r="1" gradientUnits="userSpaceOnUse" gradientTransform="translate(252.467 63.9971) rotate(-124.247) scale(52.735 45.264)">
<stop stop-color="#63BEDB"/>
<stop offset="0.33928" stop-color="#56E77E"/>
<stop offset="0.520833" stop-color="#6DE7B4"/>
<stop offset="1" stop-color="#AFE9AD"/>
</radialGradient>
<radialGradient id="paint6_radial_999_488" cx="0" cy="0" r="1" gradientUnits="userSpaceOnUse" gradientTransform="translate(48.4509 56.6478) rotate(-129.144) scale(62.0032 56.0104)">
<stop stop-color="#63BEDB"/>
<stop offset="0.33928" stop-color="#56E77E"/>
<stop offset="0.520833" stop-color="#6DE7B4"/>
<stop offset="1" stop-color="#AFE9AD"/>
</radialGradient>
<radialGradient id="paint7_radial_999_488" cx="0" cy="0" r="1" gradientUnits="userSpaceOnUse" gradientTransform="translate(45.3613 51.7421) rotate(-129.132) scale(51.8695 46.852)">
<stop stop-color="#63BEDB"/>
<stop offset="0.33928" stop-color="#56E77E"/>
<stop offset="0.520833" stop-color="#6DE7B4"/>
<stop offset="1" stop-color="#AFE9AD"/>
</radialGradient>
</defs>
</svg>
