<svg width="390" height="558" viewBox="0 0 390 558" fill="none" xmlns="http://www.w3.org/2000/svg">
<path d="M404.876 282.306C404.944 229.069 389.949 176.902 361.625 131.837C333.301 86.7729 292.806 50.6539 244.825 27.6587C196.843 4.66356 143.336 -4.26804 90.494 1.89722C37.6516 8.06248 -12.3666 29.0726 -53.7743 62.4971L-54.024 62.1759C-166.618 144.047 -205.6 292.727 -146.753 415.783C-130.473 449.809 -107.656 480.294 -79.6028 505.496C-51.5498 530.698 -18.8107 550.124 16.7449 562.664C52.3006 575.205 89.9764 580.614 127.621 578.584C165.266 576.553 202.143 567.122 236.145 550.83C257.544 540.587 274.949 525.17 291.854 510.216L298.773 504.113L298.095 503.257C331.385 476.863 358.281 443.28 376.772 405.018C395.263 366.757 404.87 324.807 404.876 282.306ZM122.838 546.405C70.6396 546.405 19.6134 530.916 -23.788 501.896C-67.1894 472.876 -101.017 431.63 -120.992 383.372C-140.968 335.114 -146.194 282.013 -136.011 230.783C-125.827 179.553 -100.691 132.495 -63.7815 95.5598C-26.8717 58.6249 20.1543 33.4719 71.3498 23.2816C122.545 13.0913 175.611 18.3213 223.836 38.3103C272.061 58.2993 313.28 92.1496 342.279 135.58C371.279 179.011 386.758 230.072 386.758 282.306C386.682 352.323 358.851 419.45 309.372 468.956C259.893 518.462 192.807 546.303 122.838 546.369V546.405Z" fill="url(#paint0_radial_57_498)"/>
<path d="M339.574 297.474H171.949L144.131 314.747C123.73 375.419 101.333 418.745 91.0615 415.676C78.9711 412.107 87.495 347.331 110.142 270.992C132.789 194.654 160.893 135.695 172.984 139.264C183.184 142.298 178.619 189.229 163.283 249.615L192.1 271.671H334.759L362.756 252.613C355.216 191.529 324.706 135.615 277.431 96.2431C230.156 56.8715 169.668 37.0004 108.271 40.6723C46.8753 44.3441 -10.8171 71.283 -53.0694 116.009C-95.3216 160.735 -118.96 219.888 -119.176 281.435C-119.392 342.982 -96.1687 402.3 -54.2311 447.321C-12.2935 492.343 45.2086 519.686 106.577 523.789C167.946 527.892 228.572 508.446 276.122 469.407C323.672 430.369 354.574 374.67 362.542 313.641L339.574 297.474Z" fill="url(#paint1_radial_57_498)"/>
<defs>
<radialGradient id="paint0_radial_57_498" cx="0" cy="0" r="1" gradientUnits="userSpaceOnUse" gradientTransform="translate(348.4 561.185) rotate(-131.327) scale(649.439 701.814)">
<stop stop-color="#FD5454"/>
<stop offset="0.291667" stop-color="#FF9061"/>
<stop offset="0.533346" stop-color="#FFBA7B"/>
<stop offset="1" stop-color="#FFCEC4"/>
</radialGradient>
<radialGradient id="paint1_radial_57_498" cx="0" cy="0" r="1" gradientUnits="userSpaceOnUse" gradientTransform="translate(315.738 509.433) rotate(-131.207) scale(541.977 585.364)">
<stop stop-color="#FD5454"/>
<stop offset="0.291667" stop-color="#FF9061"/>
<stop offset="0.533346" stop-color="#FFBA7B"/>
<stop offset="1" stop-color="#FFCEC4"/>
</radialGradient>
</defs>
</svg>
