<svg width="41" height="73" viewBox="0 0 41 73" fill="none" xmlns="http://www.w3.org/2000/svg">
<g clip-path="url(#clip0_144_3878)">
<path d="M20.5 72.4565C15.2078 72.4522 10.1336 70.3375 6.39142 66.5767C2.64926 62.8159 0.545046 57.7164 0.540771 52.3978V32.1768C0.540771 26.8568 2.64362 21.7548 6.3867 17.9931C10.1298 14.2313 15.2065 12.118 20.5 12.118C25.7935 12.118 30.8703 14.2313 34.6133 17.9931C38.3564 21.7548 40.4593 26.8568 40.4593 32.1768V52.3978C40.455 57.7164 38.3508 62.8159 34.6086 66.5767C30.8665 70.3375 25.7922 72.4522 20.5 72.4565Z" fill="#139239"/>
<path d="M20.5 12.6614C25.6429 12.6849 30.5685 14.7485 34.2052 18.4033C37.8418 22.058 39.8952 27.0082 39.9185 32.1768V52.3978C39.9057 57.5688 37.8555 62.5243 34.2163 66.1801C30.5772 69.8359 25.6454 71.8943 20.5 71.905C15.3578 71.8836 10.4322 69.8218 6.79535 66.1684C3.1585 62.5149 1.10487 57.5656 1.0815 52.3978V32.1768C1.11325 27.0108 3.16932 22.0655 6.80414 18.4126C10.439 14.7596 15.3597 12.6933 20.5 12.6614ZM20.5 11.5745C17.8073 11.5724 15.1406 12.1038 12.6525 13.1384C10.1644 14.173 7.90361 15.6905 5.99958 17.604C4.09556 19.5175 2.58562 21.7896 1.55615 24.2901C0.526683 26.7906 -0.00211638 29.4706 6.36562e-06 32.1768V52.3978C6.32551e-06 55.1033 0.530254 57.7823 1.56048 60.2819C2.5907 62.7815 4.10072 65.0526 6.00432 66.9657C7.90792 68.8788 10.1678 70.3964 12.655 71.4317C15.1422 72.4671 17.8079 73 20.5 73C23.1921 73 25.8578 72.4671 28.345 71.4317C30.8322 70.3964 33.0921 68.8788 34.9957 66.9657C36.8993 65.0526 38.4093 62.7815 39.4395 60.2819C40.4698 57.7823 41 55.1033 41 52.3978V32.1768C40.9872 26.7167 38.8233 21.4839 34.9816 17.623C31.1398 13.7621 25.933 11.5874 20.5 11.5745Z" fill="#080808"/>
<path d="M18.6033 49.8914C19.6196 49.8914 20.4435 49.5247 20.4435 49.0722C20.4435 48.6198 19.6196 48.253 18.6033 48.253C17.587 48.253 16.7632 48.6198 16.7632 49.0722C16.7632 49.5247 17.587 49.8914 18.6033 49.8914Z" fill="#E54B4D"/>
<path d="M18.6033 50.4349C17.2474 50.4349 16.1821 49.8346 16.1821 49.0722C16.1821 48.3098 17.1586 47.7095 18.6033 47.7095C20.048 47.7095 21.0246 48.3098 21.0246 49.0722C21.0246 49.8346 19.9592 50.4349 18.6033 50.4349ZM17.3523 49.0722C17.7393 49.2685 18.1703 49.3607 18.6033 49.3399C19.0337 49.36 19.4619 49.2678 19.8462 49.0722C19.4638 48.8705 19.0347 48.7753 18.6033 48.7964C18.1693 48.7738 17.7372 48.8691 17.3523 49.0722Z" fill="#080808"/>
<path d="M21.0407 50.3294C22.057 50.3294 22.8809 49.9626 22.8809 49.5102C22.8809 49.0578 22.057 48.691 21.0407 48.691C20.0244 48.691 19.2006 49.0578 19.2006 49.5102C19.2006 49.9626 20.0244 50.3294 21.0407 50.3294Z" fill="#E54B4D"/>
<path d="M21.0408 50.8729C19.6849 50.8729 18.6599 50.2726 18.6599 49.5102C18.6599 48.7477 19.6364 48.1475 21.0408 48.1475C22.4451 48.1475 23.462 48.7396 23.462 49.5102C23.462 50.2807 22.4532 50.8729 21.0408 50.8729ZM19.8463 49.4777C20.2336 49.673 20.6643 49.7651 21.0973 49.7454C21.5302 49.7651 21.9609 49.673 22.3482 49.4777C21.9634 49.2746 21.5313 49.1794 21.0973 49.202C20.6632 49.1794 20.2311 49.2746 19.8463 49.4777Z" fill="#080808"/>
<path d="M20.7744 50.2159C18.3532 50.2159 16.1095 48.3098 15.3992 45.5844L15.3347 45.1464L15.7705 45.2519C17.1983 45.5341 18.6494 45.6807 20.1045 45.6899C22.0672 45.6952 24.0208 45.4221 25.9075 44.8788L26.3433 44.7733L26.2384 45.2113C25.6492 48.1475 23.4055 50.2159 20.7744 50.2159ZM16.053 45.8521C16.348 46.8977 16.9625 47.8237 17.8098 48.499C18.6571 49.1744 19.6942 49.565 20.7744 49.6156C21.9239 49.5599 23.0227 49.1229 23.8988 48.373C24.775 47.6231 25.3792 46.6025 25.6169 45.4709C23.8117 45.9577 21.9494 46.1978 20.0803 46.1846H20.0158C18.6871 46.2073 17.3595 46.0959 16.053 45.8521Z" fill="#080808"/>
<path d="M10.9522 15.1677C8.29389 16.6884 6.0294 18.8169 4.34212 21.3808C4.50805 21.9721 4.70471 22.5542 4.93129 23.1247C5.2622 23.8385 6.61811 25.2498 6.6746 25.9636C6.6746 26.2313 6.07736 27.1559 5.96436 27.5372C5.78604 28.1029 5.71219 28.6967 5.74645 29.2892C5.80295 30.3761 6.50511 31.5765 6.45669 32.6066C6.40019 33.4826 5.52854 34.2288 5.10078 35.0399C4.45881 36.1013 4.22623 37.3624 4.44704 38.5845C4.64146 39.1523 4.78726 39.7357 4.88287 40.3284C4.84282 40.9354 4.75101 41.5378 4.60846 42.1291C4.44688 43.5206 4.39291 44.9226 4.44704 46.3225C4.60846 48.9911 5.14921 51.6677 4.82637 54.3363C4.50354 57.1671 2.71181 59.349 3.74488 62.2933C5.5994 65.4169 8.25981 67.9785 11.4445 69.7068C11.3182 67.2779 10.7205 64.8972 9.68503 62.6988C9.14429 61.4984 8.38562 60.736 8.76496 59.3733C9.20222 58.1616 9.56343 56.9236 9.84645 55.6665C10.1061 53.1079 10.0709 50.5277 9.74153 47.9772C9.60312 46.6924 9.5465 45.4002 9.57204 44.1082C9.62854 42.8591 10.0079 41.6018 10.0079 40.3527C10.0748 39.7063 10.0005 39.053 9.78996 38.4385C9.52362 37.7896 9.46712 38.0086 9.62854 37.4571C9.95137 36.4837 10.9279 35.7699 11.2427 34.6831C11.6044 33.5704 11.6409 32.3768 11.3476 31.2439C11.1297 30.1571 10.7504 29.6217 11.0813 28.6322C11.509 27.3749 11.9449 26.4503 11.622 25.1444C11.3551 24.1133 10.9128 23.1364 10.3146 22.2568C9.12814 20.3426 8.57932 18.5501 10.2096 16.6439C10.6211 16.2541 10.8838 15.7318 10.9522 15.1677Z" fill="#5BB174"/>
<path d="M20.5 12.6614C19.5565 12.6515 18.614 12.7248 17.6832 12.8804C17.6267 13.5374 17.5703 14.1863 17.5703 14.8433C17.7355 16.2744 17.9889 17.6939 18.3289 19.0935C18.3514 20.3559 18.2432 21.6172 18.0061 22.8571C17.9162 24.2398 17.9894 25.6283 18.224 26.9937C18.6598 29.9381 20.0157 32.5012 20.6453 35.332C21.1941 38.0086 19.7817 40.3527 19.1279 42.8591C18.4823 45.5276 18.91 48.0907 19.6203 50.7025C19.9857 51.8853 20.2079 53.1081 20.2821 54.3444C20.1607 55.5868 19.8532 56.8037 19.3701 57.9538C18.4984 60.517 18.8293 63.3477 19.0472 66.065C19.2086 68.0278 19.4266 69.9826 19.7494 71.9455H20.508C21.969 71.9467 23.4254 71.7835 24.8502 71.4588C24.5193 69.4392 24.3014 67.4033 24.1399 65.408C24.035 64.1021 23.9785 62.7394 23.9785 61.4254C24.1026 60.2821 24.3964 59.1638 24.8502 58.108C25.5763 55.7072 25.5763 53.1438 24.8502 50.7431C24.1964 48.0745 23.5427 45.9494 24.4143 43.2808C25.2214 40.7745 26.0931 38.4791 25.8267 35.8105C25.5604 33.142 24.3579 30.7978 23.6557 28.2347C23.2862 26.8848 23.1042 25.49 23.1149 24.09C23.1149 22.6786 23.5427 21.316 23.5427 19.9533C23.4468 18.7483 23.2112 17.5587 22.8405 16.4087C22.6226 15.2374 22.6226 14.0356 22.8405 12.8642C22.0658 12.7437 21.2838 12.676 20.5 12.6614Z" fill="#5BB174"/>
<path d="M29.3376 14.7865C29.1762 18.4933 30.4756 21.9811 31.7589 25.6878C33.712 31.0817 33.2197 36.3702 32.4045 41.9101C32.0252 44.6354 31.5975 47.3121 31.428 50.0861C31.2585 52.8601 31.6459 55.6503 31.5975 58.4811C31.4891 62.0152 31.144 65.538 30.5644 69.0255C32.8936 67.5786 34.904 65.6685 36.4723 63.4126C36.6417 61.8877 36.7467 60.3061 36.8032 58.7812C36.8516 56.1045 36.4723 53.4359 36.5853 50.6701C36.7477 47.949 37.0738 45.2404 37.5618 42.5589C38.3205 37.3273 38.9662 32.0145 37.6102 26.7504C36.9081 24.1386 35.7701 21.7377 35.1164 19.2314C33.4852 17.3979 31.5247 15.8899 29.3376 14.7865Z" fill="#5BB174"/>
<path d="M20.5 72.1889C15.2791 72.1824 10.2738 70.0952 6.58207 66.3851C2.89032 62.6749 0.813475 57.6447 0.807068 52.3977V32.1767C0.807068 26.93 2.881 21.8981 6.57262 18.188C10.2642 14.478 15.2712 12.3937 20.4919 12.3937C25.7127 12.3937 30.7196 14.478 34.4112 18.188C38.1028 21.8981 40.1768 26.93 40.1768 32.1767V52.3977C40.1704 57.6419 38.0957 62.6696 34.4075 66.3793C30.7192 70.089 25.7181 72.1781 20.5 72.1889ZM20.5 12.9777C15.429 12.9756 10.5645 14.9963 6.97495 18.5962C3.38544 22.196 1.36444 27.0805 1.35589 32.1767V52.3977C1.35589 57.5004 3.37285 62.394 6.96306 66.0022C10.5533 69.6103 15.4227 71.6373 20.5 71.6373C25.5773 71.6373 30.4467 69.6103 34.0369 66.0022C37.6271 62.394 39.6441 57.5004 39.6441 52.3977V32.1767C39.6249 27.0838 37.6005 22.2055 34.0133 18.608C30.4261 15.0105 25.5677 12.9863 20.5 12.9777Z" fill="#080808"/>
<path d="M14.4227 39.201C17.8058 39.201 20.5485 36.0779 20.5485 32.2254C20.5485 28.3729 17.8058 25.2499 14.4227 25.2499C11.0395 25.2499 8.29688 28.3729 8.29688 32.2254C8.29688 36.0779 11.0395 39.201 14.4227 39.201Z" fill="#F2EAE0"/>
<path d="M14.4226 39.8012C10.7343 39.8012 7.7561 36.427 7.7561 32.2822C7.7561 28.1374 10.7343 24.7632 14.4226 24.7632C18.111 24.7632 21.0972 28.1374 21.0972 32.2822C21.0972 36.427 18.111 39.8012 14.4226 39.8012ZM14.4226 25.7933C11.2992 25.7933 8.87795 28.689 8.87795 32.2254C8.87795 35.7619 11.3719 38.6575 14.463 38.6575C17.5541 38.6575 20.0561 35.77 20.0561 32.2254C20.0561 28.6809 17.5138 25.7933 14.4226 25.7933Z" fill="#080808"/>
<path d="M26.4643 39.201C29.8475 39.201 32.5901 36.0779 32.5901 32.2254C32.5901 28.3729 29.8475 25.2499 26.4643 25.2499C23.0812 25.2499 20.3386 28.3729 20.3386 32.2254C20.3386 36.0779 23.0812 39.201 26.4643 39.201Z" fill="#F2EAE0"/>
<path d="M26.4644 39.8012C22.776 39.8012 19.7979 36.427 19.7979 32.2822C19.7979 28.1374 22.776 24.7632 26.4644 24.7632C30.1528 24.7632 33.139 28.1374 33.139 32.2822C33.139 36.427 30.1528 39.8012 26.4644 39.8012ZM26.4644 25.7933C23.3732 25.7933 20.8793 28.689 20.8793 32.2254C20.8793 35.7619 23.3732 38.6575 26.4644 38.6575C29.5555 38.6575 32.0494 35.77 32.0494 32.2254C32.0494 28.6809 29.5555 25.7933 26.4644 25.7933Z" fill="#080808"/>
<path d="M16.8116 30.4815C14.8585 30.4815 13.3411 31.7387 13.3411 33.3204C13.3306 33.7257 13.4432 34.1247 13.664 34.4641L15.8915 34.5695L15.1894 35.77C15.7001 35.9867 16.2492 36.097 16.8035 36.0944C18.7567 36.0944 20.274 34.8453 20.274 33.2636C20.274 31.6819 18.7648 30.4815 16.8116 30.4815Z" fill="#021023"/>
<path d="M16.8116 36.427C16.2118 36.4352 15.6181 36.3048 15.0764 36.0458L14.8019 35.9322L15.4557 34.8778L13.559 34.7642L13.5025 34.6588C13.2874 34.2577 13.1763 33.8085 13.1797 33.3529C13.1797 31.609 14.8584 30.2463 16.9246 30.2463C18.9907 30.2463 20.6614 31.6333 20.6614 33.3205C20.6614 35.0076 18.8697 36.427 16.8116 36.427ZM15.5687 35.6889C15.9713 35.8176 16.3894 35.8912 16.8116 35.9079C18.6033 35.9079 20.0399 34.7561 20.0399 33.3448C20.0399 31.9334 18.6275 30.7817 16.8116 30.7817C14.9956 30.7817 13.5832 31.9253 13.5832 33.3448C13.5745 33.6668 13.6496 33.9856 13.8012 34.2694L16.2951 34.4317L15.5687 35.6889Z" fill="#080808"/>
<path d="M29.1197 30.4815C27.1746 30.4815 25.6492 31.7387 25.6492 33.3204C25.6411 33.7266 25.7565 34.1256 25.9801 34.4641L28.474 34.5208L27.4974 35.77C28.0081 35.9867 28.5573 36.097 29.1116 36.0944C31.0648 36.0944 32.5902 34.8453 32.5902 33.2636C32.5902 31.6819 31.0728 30.4815 29.1197 30.4815Z" fill="#021023"/>
<path d="M29.1197 36.427C28.5201 36.4335 27.9267 36.3031 27.3845 36.0458L27.0616 35.8835L27.8687 34.7885L25.7542 34.7318L25.6977 34.6263C25.4825 34.2252 25.3715 33.7761 25.3748 33.3204C25.3748 31.6252 27.0536 30.2139 29.1116 30.2139C31.1697 30.2139 32.8565 31.6252 32.8565 33.3204C32.8565 35.0156 31.1859 36.427 29.1197 36.427ZM27.9333 35.6889C28.3214 35.7974 28.7185 35.8707 29.1197 35.9079C30.9114 35.9079 32.3481 34.7642 32.3481 33.3529C32.3481 31.9415 30.9114 30.8222 29.1197 30.8222C27.328 30.8222 25.8914 31.9659 25.8914 33.3853C25.8872 33.7069 25.9621 34.0245 26.1093 34.31L28.926 34.4154L27.9333 35.6889Z" fill="#080808"/>
<path d="M32.5983 32.4444V32.2822C32.5983 28.4132 29.8299 25.3066 26.4644 25.3066C23.4862 25.3066 21.0408 27.74 20.4435 30.9195C19.9028 27.6751 17.4089 25.3066 14.4227 25.3066C11.0652 25.3066 8.29688 28.47 8.29688 32.2822V32.4444H32.5983Z" fill="#139239"/>
<path d="M20.4435 33.9693L20.2821 32.9878H7.7561V32.2822C7.7561 28.1374 10.7343 24.7632 14.4226 24.7632C15.7313 24.7965 17.0009 25.2178 18.0721 25.9739C19.1433 26.7301 19.9683 27.7875 20.4435 29.0134C20.9205 27.7888 21.7459 26.7325 22.8167 25.9766C23.8876 25.2207 25.1563 24.7986 26.4644 24.7632C30.1528 24.7632 33.139 28.1374 33.139 32.2822V32.9878H20.6049L20.4435 33.9693ZM20.8228 31.901H32.0494C31.888 28.5186 29.4506 25.7933 26.4644 25.7933C23.8656 25.7933 21.5331 27.9752 20.9923 30.9763L20.8228 31.901ZM8.87795 31.901H20.0642L19.9028 30.9763C19.7448 29.6066 19.1064 28.3383 18.1021 27.3989C17.0978 26.4594 15.7933 25.9103 14.4226 25.8501C11.4445 25.7933 8.99902 28.47 8.87795 31.901Z" fill="#080808"/>
<path d="M18.563 23.7006C18.4492 23.6889 18.3391 23.6529 18.2402 23.5952C17.2255 22.8821 16.0329 22.4678 14.7966 22.399C13.5603 22.3303 12.3295 22.6097 11.2427 23.2059C11.1788 23.2497 11.1066 23.2798 11.0305 23.294C10.9545 23.3082 10.8763 23.3064 10.801 23.2886C10.7257 23.2708 10.6549 23.2374 10.5931 23.1906C10.5313 23.1438 10.48 23.0845 10.4422 23.0166C10.4045 22.9488 10.3813 22.8737 10.374 22.7963C10.3668 22.7189 10.3757 22.6408 10.4001 22.567C10.4245 22.4933 10.464 22.4254 10.516 22.3678C10.5679 22.3102 10.6313 22.2642 10.702 22.2325C11.9632 21.5352 13.3932 21.2059 14.8307 21.2819C16.2682 21.3578 17.6559 21.836 18.8374 22.6624C18.9015 22.6994 18.9563 22.7507 18.9977 22.8123C19.039 22.8739 19.0658 22.9442 19.0759 23.0178C19.0861 23.0914 19.0793 23.1663 19.0561 23.2369C19.033 23.3075 18.994 23.3718 18.9423 23.4249C18.9247 23.5101 18.8761 23.5857 18.8059 23.6367C18.7357 23.6877 18.6491 23.7105 18.563 23.7006Z" fill="#080808"/>
<path d="M30.3707 23.7007C30.2568 23.6889 30.1468 23.653 30.0478 23.5952C28.9287 22.8219 27.6045 22.4037 26.2464 22.3948C25.1195 22.3876 24.0091 22.6666 23.0181 23.2059C22.9542 23.2497 22.882 23.2798 22.8059 23.294C22.7298 23.3083 22.6517 23.3064 22.5764 23.2886C22.501 23.2708 22.4302 23.2374 22.3685 23.1906C22.3067 23.1438 22.2553 23.0845 22.2176 23.0167C22.1799 22.9488 22.1567 22.8737 22.1494 22.7963C22.1422 22.7189 22.151 22.6408 22.1755 22.5671C22.1999 22.4933 22.2394 22.4254 22.2914 22.3678C22.3433 22.3102 22.4067 22.2642 22.4774 22.2325C23.6015 21.5898 24.8724 21.2517 26.1657 21.2511C27.7396 21.252 29.2741 21.7452 30.5563 22.6624C30.6204 22.6994 30.6752 22.7507 30.7166 22.8123C30.7579 22.8739 30.7847 22.9442 30.7948 23.0178C30.805 23.0914 30.7982 23.1663 30.775 23.2369C30.7519 23.3075 30.7129 23.3718 30.6612 23.4249C30.6693 23.6439 30.5321 23.7007 30.3707 23.7007Z" fill="#080808"/>
<path d="M20.0642 45.8521C18.5152 45.8537 16.9705 45.6906 15.4557 45.3654C16.1579 48.0907 18.2805 50.0536 20.7744 50.0536C23.4297 50.0536 25.6169 47.8717 26.198 44.9842C24.2059 45.5702 22.1398 45.8625 20.0642 45.8521Z" fill="#021023"/>
<path d="M20.7744 50.5971C18.0626 50.5971 15.6737 48.5288 14.915 45.4709L14.6971 44.6598L15.5687 44.8301C17.0313 45.1341 18.5223 45.2783 20.0158 45.26H20.0642C22.0799 45.2658 24.0869 44.9929 26.0286 44.4489L26.9002 44.1731L26.7388 45.0491C26.0851 48.3584 23.6477 50.5971 20.7744 50.5971ZM16.2144 46.0711C16.5421 47.036 17.1535 47.8783 17.9677 48.4866C18.7819 49.0948 19.7606 49.4405 20.7744 49.4778C21.8445 49.4144 22.8684 49.0181 23.7042 48.3437C24.5401 47.6694 25.1465 46.7504 25.4394 45.7142C22.4199 46.4626 19.2786 46.573 16.2144 46.0387V46.0711Z" fill="#080808"/>
<path d="M28.1996 44.3272C25.9793 45.7187 23.4152 46.4563 20.7986 46.4563C18.182 46.4563 15.6179 45.7187 13.3976 44.3272" fill="#139239"/>
<path d="M20.8228 46.9958C18.1045 47.0094 15.4368 46.2563 13.1232 44.822L13.7205 43.8892C15.8524 45.2253 18.3144 45.9336 20.8269 45.9336C23.3393 45.9336 25.8014 45.2253 27.9333 43.8892L28.5305 44.822C26.2146 46.2577 23.5439 47.0109 20.8228 46.9958Z" fill="#080808"/>
<path d="M29.2327 45.4222C28.6546 45.4124 28.1021 45.1811 27.688 44.7755C27.274 44.37 27.0297 43.8209 27.0051 43.2403C27.0002 43.167 27.0111 43.0935 27.0371 43.0248C27.0631 42.9561 27.1035 42.8938 27.1556 42.8422C27.2077 42.7906 27.2702 42.7509 27.339 42.7258C27.4077 42.7008 27.481 42.6909 27.5539 42.6969C27.6973 42.6969 27.8349 42.7542 27.9363 42.8561C28.0377 42.958 28.0947 43.0962 28.0947 43.2403C28.0938 43.3932 28.1251 43.5444 28.1864 43.6843C28.2476 43.8241 28.3376 43.9494 28.4503 44.052C28.563 44.1546 28.696 44.2321 28.8405 44.2795C28.9851 44.3269 29.1379 44.3432 29.2892 44.3272C29.3611 44.3238 29.4329 44.3354 29.5001 44.3615C29.5673 44.3876 29.6283 44.4275 29.6792 44.4787C29.7301 44.5298 29.7698 44.5912 29.7958 44.6587C29.8217 44.7262 29.8334 44.7984 29.8299 44.8707C29.8328 44.9481 29.819 45.0253 29.7893 45.0969C29.7596 45.1684 29.7148 45.2326 29.658 45.2851C29.6012 45.3375 29.5338 45.3769 29.4603 45.4006C29.3869 45.4243 29.3092 45.4317 29.2327 45.4222Z" fill="#080808"/>
<path d="M12.3081 45.4222C12.2325 45.4265 12.1569 45.4156 12.0857 45.3901C12.0144 45.3645 11.949 45.3248 11.8933 45.2734C11.8376 45.222 11.7927 45.1598 11.7614 45.0906C11.7301 45.0214 11.7129 44.9466 11.7108 44.8706C11.7221 44.7289 11.7838 44.596 11.8846 44.4962C11.9854 44.3965 12.1185 44.3365 12.2596 44.3272C12.5554 44.3229 12.8393 44.21 13.0579 44.0098C13.2765 43.8095 13.4145 43.5358 13.4461 43.2403C13.4623 43.1066 13.5266 42.9834 13.627 42.8941C13.7274 42.8048 13.8568 42.7555 13.9908 42.7555C14.1249 42.7555 14.2543 42.8048 14.3547 42.8941C14.455 42.9834 14.5194 43.1066 14.5356 43.2403C14.511 43.8208 14.2667 44.3699 13.8527 44.7755C13.4387 45.181 12.8861 45.4124 12.3081 45.4222Z" fill="#080808"/>
<path d="M3.09112 0.511008C3.03463 0.559675 4.60845 9.23045 9.05549 13.0427C13.5025 16.8549 18.7405 18.0553 20.6614 15.7112L20.7744 15.6058L20.8793 15.4922C22.8325 13.1481 20.8228 8.19223 16.3758 4.38001C11.9287 0.567786 3.14762 0.454231 3.09112 0.511008Z" fill="#609C3F"/>
<path d="M17.6833 17.4551C15.0199 17.4551 11.6624 15.987 8.73266 13.4806C4.03542 9.44942 2.60687 0.616423 2.60687 0.559645V0.340645L2.71179 0.235201L2.76829 0.0729788L3.03463 -2.11969e-05C3.47046 -0.105466 12.2596 0.218979 16.7551 4.05553C21.5331 8.11109 23.4862 13.3265 21.3151 15.9383L21.2021 16.0519L21.0972 16.1573C20.3363 16.9801 19.2841 17.4695 18.1675 17.52C18.011 17.4704 17.8472 17.4485 17.6833 17.4551ZM3.79329 1.05442C4.22912 3.06598 5.85943 9.49809 9.4429 12.6046C12.3161 15.038 15.6817 16.5304 18.1191 16.3114C18.5304 16.3176 18.938 16.2329 19.3132 16.0633C19.6883 15.8937 20.0219 15.6434 20.2901 15.33L20.3466 15.2813L20.4516 15.1678C22.2433 13.0994 20.1852 8.35442 16.061 4.80987C12.3645 1.70331 5.80294 1.15987 3.79329 1.05442Z" fill="#080808"/>
<path d="M3.63203 0.188101L2.93109 1.01581L20.4849 16.0297L21.1858 15.202L3.63203 0.188101Z" fill="#080808"/>
<path d="M11.3106 1.50948L10.2365 1.63629L10.939 7.64586L12.0131 7.51905L11.3106 1.50948Z" fill="#080808"/>
<path d="M15.68 4.3222L15.4609 11.5702L16.5419 11.6032L16.761 4.3552L15.68 4.3222Z" fill="#080808"/>
<path d="M13.2531 8.94435L7.7951 11.3613L8.23119 12.3559L13.6892 9.93896L13.2531 8.94435Z" fill="#080808"/>
<path d="M18.2607 13.2078L13.5818 15.5012L14.0559 16.4781L18.7348 14.1847L18.2607 13.2078Z" fill="#080808"/>
<path d="M19.7334 8.93755L19.2518 14.7493L20.3296 14.8395L20.8111 9.02775L19.7334 8.93755Z" fill="#080808"/>
<path d="M35.1728 32.7851H4.28563C4.15077 32.7851 4.02144 32.7312 3.92609 32.6354C3.83073 32.5396 3.77716 32.4096 3.77716 32.2741C3.77716 32.1385 3.83073 32.0086 3.92609 31.9127C4.02144 31.8169 4.15077 31.7631 4.28563 31.7631H35.1728C35.3077 31.7631 35.437 31.8169 35.5324 31.9127C35.6277 32.0086 35.6813 32.1385 35.6813 32.2741C35.6813 32.4096 35.6277 32.5396 35.5324 32.6354C35.437 32.7312 35.3077 32.7851 35.1728 32.7851Z" fill="#010F24"/>
</g>
<defs>
<clipPath id="clip0_144_3878">
<rect width="41" height="73" fill="white"/>
</clipPath>
</defs>
</svg>
