<svg width="178" height="231" viewBox="0 0 178 231" fill="none" xmlns="http://www.w3.org/2000/svg">
<g opacity="0.5">
<path d="M11.7302 46C17.0172 46 27.1506 50.9182 31.5564 53.3773V78.6535C28.9931 77.2425 21.4391 73.3806 11.7302 69.2203C-0.405853 64.0199 0.795737 57.3683 1.27637 54.9495C1.75701 52.5307 5.12146 46 11.7302 46Z" fill="#00071F"/>
<path d="M76.5 230C71 220.5 70 219 63 207L142.824 63.6571C145.187 60.6739 151.812 54.8285 156.522 55.3123C162.41 55.917 166.615 58.6986 165.534 63.6571C164.452 68.6156 159.095 106.842 165.534 117C169.89 123.873 174.238 136.471 176.897 151M31.5564 53.3773C27.1506 50.9182 17.0172 46 11.7302 46C5.12146 46 1.75701 52.5307 1.27637 54.9495C0.795737 57.3683 -0.405853 64.0199 11.7302 69.2203C21.4391 73.3806 28.9931 77.2425 31.5564 78.6535V53.3773Z" stroke="#FED0B7" stroke-width="2" stroke-linecap="round"/>
<rect x="32" y="1" width="111" height="206" rx="13" fill="#00071F" stroke="#FED0B7" stroke-width="2"/>
<path d="M84.125 164.333H90.875V157.833H95.375L87.5 150.25L79.625 157.833H84.125V164.333ZM87.5 153.316L89.9413 155.667H88.625V162.167H86.375V155.667H85.0588L87.5 153.316ZM79.625 166.5H95.375V168.667H79.625V166.5Z" fill="#FED0B7"/>
<path d="M21.0999 83.7338C25.1469 81.6003 30.1444 84.6228 32.1372 86.4007C45.589 93.5528 47.1986 100.099 44.3243 106.524C41.45 112.948 34.4367 114.282 30.6426 113.676C26.8485 113.07 14.2015 105.311 12.3619 100.099C10.5224 94.8862 16.0411 86.4007 21.0999 83.7338Z" fill="#00071F"/>
<path d="M22.3646 118.646C25.3998 118.064 30.1444 119.777 32.1372 120.707C51.1077 130.525 45.8189 140.829 41.335 146.163C36.8511 151.497 23.2843 145.557 17.1908 140.829C11.0973 136.102 12.3619 127.737 13.8566 125.434C15.3512 123.131 18.5705 119.373 22.3646 118.646Z" fill="#00071F"/>
<path d="M21.7897 157.558C26.1127 155.715 32.6354 157.437 35.3564 158.528C42.7147 162.043 44.3243 163.377 45.704 168.104C47.0836 172.832 43.5195 179.742 37.5409 179.984C31.5624 180.227 23.0544 177.681 19.0304 173.802C15.0063 169.923 16.386 159.861 21.7897 157.558Z" fill="#00071F"/>
<path d="M21.0999 83.7338C25.1469 81.6003 30.1444 84.6228 32.1372 86.4007C45.589 93.5528 47.1986 100.099 44.3243 106.524C41.45 112.948 34.4367 114.282 30.6426 113.676C26.8485 113.07 14.2015 105.311 12.3619 100.099C10.5224 94.8862 16.0411 86.4007 21.0999 83.7338Z" stroke="#FED0B7" stroke-width="2"/>
<path d="M22.3646 118.646C25.3998 118.064 30.1444 119.777 32.1372 120.707C51.1077 130.525 45.8189 140.829 41.335 146.163C36.8511 151.497 23.2843 145.557 17.1908 140.829C11.0973 136.102 12.3619 127.737 13.8566 125.434C15.3512 123.131 18.5705 119.373 22.3646 118.646Z" stroke="#FED0B7" stroke-width="2"/>
<path d="M21.7897 157.558C26.1127 155.715 32.6354 157.437 35.3564 158.528C42.7147 162.043 44.3243 163.377 45.704 168.104C47.0836 172.832 43.5195 179.742 37.5409 179.984C31.5624 180.227 23.0544 177.681 19.0304 173.802C15.0063 169.923 16.386 159.861 21.7897 157.558Z" stroke="#FED0B7" stroke-width="2"/>
<circle cx="87.5" cy="14.5" r="3.5" fill="#FED0B7"/>
<path d="M88 68.8C90.32 68.8 92.2 70.68 92.2 73C92.2 75.32 90.32 77.2 88 77.2C85.68 77.2 83.8 75.32 83.8 73C83.8 70.68 85.68 68.8 88 68.8ZM88 86.8C93.94 86.8 100.2 89.72 100.2 91V93.2H75.8V91C75.8 89.72 82.06 86.8 88 86.8ZM88 65C83.58 65 80 68.58 80 73C80 77.42 83.58 81 88 81C92.42 81 96 77.42 96 73C96 68.58 92.42 65 88 65ZM88 83C82.66 83 72 85.68 72 91V97H104V91C104 85.68 93.34 83 88 83Z" fill="#FED0B7"/>
<path d="M64.6864 55V55C60.7876 55 57.627 58.1606 57.627 62.0595V63.1083" stroke="#FED0B7" stroke-width="3" stroke-linecap="round"/>
<path d="M111.314 55V55C115.212 55 118.373 58.1606 118.373 62.0595V63.1083" stroke="#FED0B7" stroke-width="3" stroke-linecap="round"/>
<path d="M64.6864 110V110C60.7876 110 57.627 106.839 57.627 102.941V101.892" stroke="#FED0B7" stroke-width="3" stroke-linecap="round"/>
<path d="M111.314 110V110C115.212 110 118.373 106.839 118.373 102.941V101.892" stroke="#FED0B7" stroke-width="3" stroke-linecap="round"/>
</g>
</svg>
