<svg width="36" height="36" viewBox="0 0 36 36" fill="none" xmlns="http://www.w3.org/2000/svg">
<path fill-rule="evenodd" clip-rule="evenodd" d="M17.9997 0.583496C8.38092 0.583496 0.583008 8.38141 0.583008 18.0002C0.583008 27.6189 8.38092 35.4168 17.9997 35.4168C27.6184 35.4168 35.4163 27.6189 35.4163 18.0002C35.4163 8.38141 27.6184 0.583496 17.9997 0.583496ZM25.549 15.0552C25.688 14.8963 25.7938 14.7112 25.8603 14.5108C25.9267 14.3104 25.9524 14.0987 25.9358 13.8882C25.9192 13.6777 25.8607 13.4727 25.7637 13.2852C25.6667 13.0977 25.5331 12.9314 25.371 12.7963C25.2088 12.6611 25.0212 12.5598 24.8192 12.4982C24.6173 12.4366 24.4051 12.416 24.1951 12.4376C23.9851 12.4593 23.7815 12.5227 23.5964 12.6242C23.4112 12.7256 23.2482 12.8631 23.117 13.0285L16.3087 21.1969L12.7858 17.6724C12.4871 17.384 12.0872 17.2244 11.672 17.228C11.2569 17.2316 10.8598 17.3981 10.5662 17.6917C10.2726 17.9853 10.1061 18.3824 10.1025 18.7975C10.0989 19.2127 10.2585 19.6126 10.5469 19.9112L15.2969 24.6612C15.4525 24.8167 15.6388 24.9381 15.8438 25.0176C16.0489 25.0971 16.2683 25.133 16.488 25.123C16.7077 25.113 16.923 25.0574 17.12 24.9596C17.317 24.8619 17.4915 24.7241 17.6323 24.5552L25.549 15.0552Z" fill="#FED0B7"/>
</svg>
